<svg xmlns="http://www.w3.org/2000/svg" viewBox="0 0 30 30"><defs><style>.cls-1{fill:#4c75a3;}.cls-2{fill:#fff;}</style></defs><title>vk</title><g id="Слой_2" data-name="Слой 2"><g id="Слой_1-2" data-name="Слой 1"><rect class="cls-1" width="30" height="30" rx="7" ry="7"/><path class="cls-2" d="M14.78,20.81H16a1,1,0,0,0,.56-.24.9.9,0,0,0,.17-.54s0-1.65.74-1.89,1.72,1.59,2.75,2.3a1.94,1.94,0,0,0,1.36.42l2.74,0s1.43-.09.75-1.22a9.17,9.17,0,0,0-2-2.36c-1.72-1.6-1.49-1.34.58-4.1,1.26-1.68,1.77-2.71,1.61-3.15s-1.08-.31-1.08-.31l-3.09,0a.7.7,0,0,0-.4.07.86.86,0,0,0-.27.33,17.91,17.91,0,0,1-1.14,2.41c-1.37,2.33-1.92,2.46-2.15,2.31-.52-.34-.39-1.36-.39-2.08,0-2.26.34-3.21-.67-3.45a5.28,5.28,0,0,0-1.44-.14A6.66,6.66,0,0,0,12,9.41c-.35.17-.62.56-.46.58a1.39,1.39,0,0,1,.91.46,3,3,0,0,1,.31,1.4s.18,2.66-.42,3c-.42.23-1-.24-2.21-2.35a19.7,19.7,0,0,1-1.1-2.28.92.92,0,0,0-.25-.34,1.28,1.28,0,0,0-.47-.19l-2.93,0s-.44,0-.6.2,0,.52,0,.52,2.3,5.37,4.9,8.08a7,7,0,0,0,5.09,2.32"/></g></g></svg>