<svg xmlns="http://www.w3.org/2000/svg" viewBox="0 0 42.9 43.66"><defs><style>.cls-1{fill:#0d960b;}</style></defs><title>arrow-slider-right</title><g id="Слой_2" data-name="Слой 2"><g id="Слой_2-2" data-name="Слой 2"><path class="cls-1" d="M42.75,21.07a23.48,23.48,0,0,0-6.56-13.9A22.63,22.63,0,0,0,23,.87C19.18-.77,14.89,0,11.31,2.4a26.59,26.59,0,0,0-10,14C-.54,22-.61,28.27,2.37,33.52c3.61,6.36,11.2,9.26,18.13,10,6.55.69,13.16-1.08,17.59-6.15C41.94,33,43.4,26.79,42.75,21.07Zm-2.38,6.48C39.66,32.82,37,37,31.83,39.27a20.22,20.22,0,0,1-9.73,1.28,27.79,27.79,0,0,1-11.41-3.38A16.22,16.22,0,0,1,2.35,22.87,22.78,22.78,0,0,1,8,8.17a15.14,15.14,0,0,1,7.24-4.89A9.18,9.18,0,0,1,18.49,3a.61.61,0,0,0,.63.66,25.42,25.42,0,0,1,2.55.2,11.2,11.2,0,0,1,1.79,1c.42.3.94,0,1.35-.42A20.78,20.78,0,0,1,36,11.8,21.68,21.68,0,0,1,40.37,27.56Z"/><path class="cls-1" d="M35.63,21.12c-3.22-2.18-6.2-4.78-9.21-7.24a.62.62,0,0,0-.32-.14.75.75,0,0,0-1.18-.45,2.42,2.42,0,0,0-1.16,2c0,.37,0,.75,0,1.12a118.32,118.32,0,0,1-14-.65.82.82,0,0,0-.26,0l-.08,0h0a1.93,1.93,0,0,0-1,.92l0,0-.05.1v0a3.05,3.05,0,0,0-.14.3c-.83,1.95-.19,4-.14,6v1.32a.76.76,0,0,0,1.21.7l.12-.08c-.06.5.1.89.61.89,4.28,0,8.57,0,12.83.31q-.13.88-.27,1.76h0a2,2,0,0,0,0,.36,1,1,0,0,0,.16.55.6.6,0,0,0,.69.29h.07l.11,0h0l.07,0a1.44,1.44,0,0,0,.26-.15,57,57,0,0,1,10.71-5C35.41,23.72,36.74,21.86,35.63,21.12Z"/></g></g></svg>