<svg xmlns="http://www.w3.org/2000/svg" viewBox="0 0 28.94 28.69"><defs><style>.cls-1{fill:#5fc1e6;stroke:#5fc1e6;stroke-linecap:round;stroke-miterlimit:10;}.cls-2{fill:none;}</style></defs><title>border-menu</title><g id="Слой_2" data-name="Слой 2"><g id="Слой_2-2" data-name="Слой 2"><path class="cls-1" d="M2.78,10.58c-2-2-6-13.43,6-5.86,3,2,4.78,4.29,8,5.86,2,1,7.95,8.54,9,10.57.64,1.23,4,10-4,6-4-2.93-8-6.81-11-8.76S2.78,10.58,2.78,10.58Z"/><path class="cls-1" d="M2.78,21.16c-1,2-2,9.92,8,5,5-2.93,7-5.81,9-7.76s1-2.24,2-3.24a36.28,36.28,0,0,0,5-7c.45-.87,5-10.27-8-4.41a37.14,37.14,0,0,0-7,5.86C9.23,12.1,2.78,21.16,2.78,21.16Z"/><path class="cls-2" d="M23.28,1.66s4.25-1,5.1,4C29.23,1.66,30.08-2.34,23.28,1.66Z"/></g></g></svg>