<svg xmlns="http://www.w3.org/2000/svg" xmlns:xlink="http://www.w3.org/1999/xlink" viewBox="0 0 288.38 232"><defs><style>.cls-1{fill:url(#Безымянный_градиент_6);}.cls-2{fill:#c66e17;}.cls-3{fill:#fff;}.cls-4{fill:#cf241c;}.cls-5{fill:#b71622;}</style><linearGradient id="Безымянный_градиент_6" x1="138.74" y1="190.48" x2="136.6" y2="34.16" gradientUnits="userSpaceOnUse"><stop offset="0" stop-color="#f15a24"/><stop offset="1" stop-color="#fbb03b"/></linearGradient></defs><title>header-cart</title><g id="Слой_2" data-name="Слой 2"><g id="Слой_1-2" data-name="Слой 1"><path class="cls-1" d="M53.61,193.5,1.71,59.36A17.62,17.62,0,0,1,3.53,43,14.41,14.41,0,0,1,15.47,36.5H228.58l36.3-31.76,7.82,10.74-37,32.35L205,193.5Z"/><path class="cls-2" d="M264.8,5.47,272,15.4l-36.5,31.94-.25.22-.07.33L204.57,193H54L2.18,59.18A17.12,17.12,0,0,1,3.95,43.32,13.91,13.91,0,0,1,15.47,37h213.3l.28-.25L264.8,5.47M265,4,228.39,36H15.47C4.4,36-3.08,48.38,1.24,59.55L53.27,194H205.38L236.19,48.09l37.19-32.54L265,4Z"/><rect class="cls-3" x="24.38" y="58" width="191.73" height="27" rx="13.5" ry="13.5"/><rect class="cls-3" x="39.38" y="101" width="167.61" height="27" rx="13.5" ry="13.5"/><rect class="cls-3" x="57" y="144" width="139.37" height="27" rx="13.5" ry="13.5"/><path class="cls-3" d="M70.38,226.5A19.5,19.5,0,1,1,89.88,207,19.52,19.52,0,0,1,70.38,226.5Z"/><path d="M70.38,193a14,14,0,1,1-14,14,14,14,0,0,1,14-14m0-11a25,25,0,1,0,25,25,25,25,0,0,0-25-25Z"/><path class="cls-3" d="M198.38,226.5a19.5,19.5,0,1,1,19.5-19.5A19.52,19.52,0,0,1,198.38,226.5Z"/><path d="M198.38,193a14,14,0,1,1-14,14,14,14,0,0,1,14-14m0-11a25,25,0,1,0,25,25,25,25,0,0,0-25-25Z"/><path class="cls-4" d="M274.38,27.5A13.5,13.5,0,1,1,287.88,14,13.52,13.52,0,0,1,274.38,27.5Z"/><path class="cls-5" d="M274.38,1a13,13,0,1,1-13,13,13,13,0,0,1,13-13m0-1a14,14,0,1,0,14,14,14,14,0,0,0-14-14Z"/></g></g></svg>