<svg xmlns="http://www.w3.org/2000/svg" viewBox="0 0 30 30"><defs><style>.cls-1{fill:#de791c;}.cls-2{fill:#fff;}</style></defs><title>ok</title><g id="Слой_2" data-name="Слой 2"><g id="Слой_1-2" data-name="Слой 1"><rect class="cls-1" width="30" height="30" rx="7" ry="7"/><path class="cls-2" d="M15,15.34A5.47,5.47,0,1,0,9.53,9.88,5.47,5.47,0,0,0,15,15.34"/><path class="cls-2" d="M17.21,19.8a10.23,10.23,0,0,0,3.17-1.31,1.6,1.6,0,0,0-1.7-2.71h0a6.94,6.94,0,0,1-7.36,0,1.6,1.6,0,0,0-2.21.5h0a1.6,1.6,0,0,0,.5,2.21,10.24,10.24,0,0,0,3.17,1.31L9.73,22.86A1.6,1.6,0,1,0,12,25.12h0l3-3,3,3a1.6,1.6,0,0,0,2.26,0h0a1.6,1.6,0,0,0,0-2.26h0L17.21,19.8"/><circle class="cls-1" cx="15" cy="9.88" r="2.5"/></g></g></svg>