<svg xmlns="http://www.w3.org/2000/svg" viewBox="0 0 42.9 43.66"><defs><style>.cls-1{fill:#0d960b;}</style></defs><title>arrow-slider-left</title><g id="Слой_2" data-name="Слой 2"><g id="Слой_2-2" data-name="Слой 2"><path class="cls-1" d="M4.81,37.37c4.43,5.06,11,6.84,17.59,6.15,6.93-.74,14.52-3.63,18.13-10,3-5.25,2.91-11.54,1.1-17.16a26.59,26.59,0,0,0-10-14C28,0,23.72-.77,19.88.87A22.63,22.63,0,0,0,6.71,7.17,23.48,23.48,0,0,0,.15,21.07C-.5,26.79,1,33,4.81,37.37Zm2-25.56A20.78,20.78,0,0,1,18.09,4.47c.41.47.92.72,1.35.42a11.2,11.2,0,0,1,1.79-1,25.42,25.42,0,0,1,2.55-.2A.61.61,0,0,0,24.41,3a9.18,9.18,0,0,1,3.27.29,15.14,15.14,0,0,1,7.24,4.89,22.78,22.78,0,0,1,5.63,14.7,16.22,16.22,0,0,1-8.34,14.29A27.79,27.79,0,0,1,20.8,40.55a20.22,20.22,0,0,1-9.73-1.28C5.95,37,3.24,32.82,2.53,27.56A21.68,21.68,0,0,1,6.86,11.8Z"/><path class="cls-1" d="M7.26,21.12c3.22-2.18,6.2-4.78,9.21-7.24a.62.62,0,0,1,.32-.14A.75.75,0,0,1,18,13.29a2.42,2.42,0,0,1,1.16,2c0,.37,0,.75,0,1.12a118.32,118.32,0,0,0,14-.65.82.82,0,0,1,.26,0l.08,0h0a1.93,1.93,0,0,1,1,.92l0,0,.05.1v0a3.05,3.05,0,0,1,.14.3c.83,1.95.19,4,.14,6v1.32a.76.76,0,0,1-1.21.7l-.12-.08c.06.5-.1.89-.61.89-4.28,0-8.57,0-12.83.31q.13.88.27,1.76h0a2,2,0,0,1,0,.36,1,1,0,0,1-.16.55.6.6,0,0,1-.69.29h-.07l-.11,0h0l-.07,0a1.44,1.44,0,0,1-.26-.15A57,57,0,0,0,8.37,24C7.49,23.72,6.16,21.86,7.26,21.12Z"/></g></g></svg>