<svg xmlns="http://www.w3.org/2000/svg" viewBox="0 0 919.46 565.41"><defs><style>.cls-1{fill:none;}.cls-2{fill:#3fa9f5;}.cls-3{fill:#0c5684;}</style></defs><title>border-slider</title><g id="Слой_2" data-name="Слой 2"><g id="Слой_1-2" data-name="Слой 1"><rect class="cls-1" x="871.15" y="517.01" width="42.39" height="30.04" transform="translate(-47.63 974.5) rotate(-56.01)"/><path class="cls-2" d="M878.43,527.59a2.92,2.92,0,0,1,1.13-1c2.9-1.41,8.78,2.77,12.91,11.24,3.14,6.42,4,13.18,2,16.07a2.92,2.92,0,0,1-1.13,1c-2.9,1.41-8.77-2.77-12.91-11.24C877.34,537.24,876.48,530.48,878.43,527.59Z"/><path class="cls-3" d="M893.69,553.32c1.47-2.18,1.23-8.21-2.12-15.07a27.27,27.27,0,0,0-6.69-9c-2-1.64-3.82-2.3-4.88-1.78a1.91,1.91,0,0,0-.74.68c-1.47,2.18-1.23,8.21,2.12,15.07a27.27,27.27,0,0,0,6.69,9c2,1.64,3.82,2.3,4.88,1.78a1.91,1.91,0,0,0,.74-.68h0m1.66,1.12a3.9,3.9,0,0,1-1.52,1.36c-3.81,1.86-10.19-3.38-14.25-11.7-3.41-7-4.1-13.92-2-17.07a3.9,3.9,0,0,1,1.52-1.36c3.81-1.86,10.19,3.38,14.25,11.7,3.41,7,4.1,13.92,2,17.07Z"/><path class="cls-2" d="M883,520.79c1.95-2.89,8.54-4.62,15.67-4.13,9.41.66,15.49,4.54,15.26,7.75a2.92,2.92,0,0,1-.52,1.43c-1.95,2.89-8.54,4.63-15.67,4.13-9.41-.66-15.49-4.54-15.26-7.75A2.92,2.92,0,0,1,883,520.79Z"/><path class="cls-3" d="M912.59,525.29a1.91,1.91,0,0,0,.35-.94c.08-1.18-1.22-2.63-3.48-3.86a27.27,27.27,0,0,0-10.85-2.83c-7.62-.53-13.3,1.5-14.77,3.69a1.91,1.91,0,0,0-.35.94c-.08,1.18,1.22,2.63,3.48,3.86A27.27,27.27,0,0,0,897.82,529c7.62.53,13.3-1.5,14.77-3.69h0m1.66,1.12c-2.12,3.15-8.81,5.11-16.57,4.57-9.24-.64-16.48-4.59-16.19-8.82a3.9,3.9,0,0,1,.69-1.92c2.12-3.15,8.81-5.11,16.57-4.57,9.24.64,16.48,4.59,16.19,8.82a3.9,3.9,0,0,1-.69,1.92Z"/><rect class="cls-1" x="889.42" y="471.35" width="30.04" height="42.39"/><path class="cls-2" d="M890.42,496.65a2.92,2.92,0,0,1,.37-1.48c1.61-2.79,8.82-2.61,17,2.1,6.19,3.57,10.68,8.7,10.68,12.18a2.92,2.92,0,0,1-.37,1.48c-1.61,2.79-8.82,2.61-17-2.1C894.92,505.25,890.42,500.13,890.42,496.65Z"/><path class="cls-3" d="M917.46,509.45c0-2.63-3.57-7.5-10.18-11.32a27.27,27.27,0,0,0-10.58-3.72c-2.57-.24-4.45.23-5,1.25a1.91,1.91,0,0,0-.23,1c0,2.63,3.57,7.5,10.18,11.32a27.27,27.27,0,0,0,10.58,3.72c2.57.24,4.45-.23,5-1.25a1.91,1.91,0,0,0,.23-1h0m2,0a3.9,3.9,0,0,1-.5,2c-2.12,3.67-10.34,2.89-18.35-1.74-6.73-3.89-11.18-9.25-11.18-13a3.9,3.9,0,0,1,.5-2c2.12-3.67,10.34-2.89,18.35,1.74,6.73,3.89,11.18,9.25,11.18,13Z"/><path class="cls-2" d="M890.42,488.45c0-3.48,4.49-8.61,10.68-12.18,8.17-4.71,15.38-4.89,17-2.1a2.92,2.92,0,0,1,.37,1.48c0,3.48-4.49,8.61-10.68,12.18-8.17,4.72-15.38,4.89-17,2.1A2.92,2.92,0,0,1,890.42,488.45Z"/><path class="cls-3" d="M917.46,475.65a1.91,1.91,0,0,0-.23-1c-.59-1-2.48-1.5-5-1.25a27.27,27.27,0,0,0-10.58,3.72c-6.61,3.82-10.18,8.68-10.18,11.32a1.91,1.91,0,0,0,.23,1c.59,1,2.48,1.5,5,1.25A27.27,27.27,0,0,0,907.28,487c6.61-3.82,10.18-8.68,10.18-11.31h0m2,0c0,3.79-4.45,9.16-11.18,13-8,4.63-16.24,5.41-18.35,1.74a3.9,3.9,0,0,1-.5-2c0-3.79,4.45-9.16,11.18-13,8-4.63,16.24-5.41,18.35-1.74a3.9,3.9,0,0,1,.5,2Z"/><rect class="cls-1" x="889.42" y="428.96" width="30.04" height="42.39"/><path class="cls-2" d="M890.42,454.25a2.92,2.92,0,0,1,.37-1.48c1.61-2.79,8.82-2.61,17,2.1,6.19,3.57,10.68,8.7,10.68,12.18a2.92,2.92,0,0,1-.37,1.48c-1.61,2.79-8.82,2.61-17-2.1C894.92,462.86,890.42,457.74,890.42,454.25Z"/><path class="cls-3" d="M917.46,467.06c0-2.63-3.57-7.5-10.18-11.32A27.27,27.27,0,0,0,896.7,452c-2.57-.24-4.45.23-5,1.25a1.91,1.91,0,0,0-.23,1c0,2.63,3.57,7.5,10.18,11.32a27.27,27.27,0,0,0,10.58,3.72c2.57.24,4.45-.23,5-1.25a1.91,1.91,0,0,0,.23-1h0m2,0a3.9,3.9,0,0,1-.5,2c-2.12,3.67-10.34,2.89-18.35-1.74-6.73-3.89-11.18-9.25-11.18-13a3.9,3.9,0,0,1,.5-2c2.12-3.67,10.34-2.89,18.35,1.74,6.73,3.89,11.18,9.25,11.18,13Z"/><path class="cls-2" d="M890.42,446.06c0-3.48,4.49-8.61,10.68-12.18,8.17-4.71,15.38-4.89,17-2.1a2.92,2.92,0,0,1,.37,1.48c0,3.48-4.49,8.61-10.68,12.18-8.17,4.72-15.38,4.89-17,2.1A2.92,2.92,0,0,1,890.42,446.06Z"/><path class="cls-3" d="M917.46,433.25a1.91,1.91,0,0,0-.23-1c-.59-1-2.48-1.5-5-1.25a27.27,27.27,0,0,0-10.58,3.72c-6.61,3.82-10.18,8.68-10.18,11.32a1.91,1.91,0,0,0,.23,1c.59,1,2.48,1.5,5,1.25a27.27,27.27,0,0,0,10.58-3.72c6.61-3.82,10.18-8.68,10.18-11.31h0m2,0c0,3.79-4.45,9.16-11.18,13-8,4.63-16.24,5.41-18.35,1.74a3.9,3.9,0,0,1-.5-2c0-3.79,4.45-9.16,11.18-13,8-4.63,16.24-5.41,18.35-1.74a3.9,3.9,0,0,1,.5,2Z"/><rect class="cls-1" x="889.42" y="386.56" width="30.04" height="42.39"/><path class="cls-2" d="M890.42,411.86a2.92,2.92,0,0,1,.37-1.48c1.61-2.79,8.82-2.61,17,2.1,6.19,3.57,10.68,8.7,10.68,12.18a2.92,2.92,0,0,1-.37,1.48c-1.61,2.79-8.82,2.61-17-2.1C894.92,420.47,890.42,415.34,890.42,411.86Z"/><path class="cls-3" d="M917.46,424.66c0-2.63-3.57-7.5-10.18-11.32a27.27,27.27,0,0,0-10.58-3.72c-2.57-.24-4.45.23-5,1.25a1.91,1.91,0,0,0-.23,1c0,2.63,3.57,7.5,10.18,11.32a27.27,27.27,0,0,0,10.58,3.72c2.57.24,4.45-.23,5-1.25a1.91,1.91,0,0,0,.23-1h0m2,0a3.9,3.9,0,0,1-.5,2c-2.12,3.67-10.34,2.89-18.35-1.74-6.73-3.89-11.18-9.25-11.18-13a3.9,3.9,0,0,1,.5-2c2.12-3.67,10.34-2.89,18.35,1.74,6.73,3.89,11.18,9.25,11.18,13Z"/><path class="cls-2" d="M890.42,403.66c0-3.48,4.49-8.61,10.68-12.18,8.17-4.71,15.38-4.89,17-2.1a2.92,2.92,0,0,1,.37,1.48c0,3.48-4.49,8.61-10.68,12.18-8.17,4.72-15.38,4.89-17,2.1A2.92,2.92,0,0,1,890.42,403.66Z"/><path class="cls-3" d="M917.46,390.86a1.91,1.91,0,0,0-.23-1c-.59-1-2.48-1.5-5-1.25a27.27,27.27,0,0,0-10.58,3.72c-6.61,3.82-10.18,8.68-10.18,11.32a1.91,1.91,0,0,0,.23,1c.59,1,2.48,1.5,5,1.25a27.27,27.27,0,0,0,10.58-3.72c6.61-3.82,10.18-8.68,10.18-11.31h0m2,0c0,3.79-4.45,9.16-11.18,13-8,4.63-16.24,5.41-18.35,1.74a3.9,3.9,0,0,1-.5-2c0-3.79,4.45-9.16,11.18-13,8-4.63,16.24-5.41,18.35-1.74a3.9,3.9,0,0,1,.5,2Z"/><rect class="cls-1" x="889.42" y="344.17" width="30.04" height="42.39"/><path class="cls-2" d="M890.42,369.46a2.92,2.92,0,0,1,.37-1.48c1.61-2.79,8.82-2.61,17,2.1,6.19,3.57,10.68,8.7,10.68,12.18a2.92,2.92,0,0,1-.37,1.48c-1.61,2.79-8.82,2.61-17-2.1C894.92,378.07,890.42,372.95,890.42,369.46Z"/><path class="cls-3" d="M917.46,382.27c0-2.63-3.57-7.5-10.18-11.32a27.27,27.27,0,0,0-10.58-3.72c-2.57-.24-4.45.23-5,1.25a1.91,1.91,0,0,0-.23,1c0,2.63,3.57,7.5,10.18,11.32a27.27,27.27,0,0,0,10.58,3.72c2.57.24,4.45-.23,5-1.25a1.91,1.91,0,0,0,.23-1h0m2,0a3.9,3.9,0,0,1-.5,2c-2.12,3.67-10.34,2.89-18.35-1.74-6.73-3.89-11.18-9.25-11.18-13a3.9,3.9,0,0,1,.5-2c2.12-3.67,10.34-2.89,18.35,1.74,6.73,3.89,11.18,9.25,11.18,13Z"/><path class="cls-2" d="M890.42,361.27c0-3.48,4.49-8.61,10.68-12.18,8.17-4.71,15.38-4.89,17-2.1a2.92,2.92,0,0,1,.37,1.48c0,3.48-4.49,8.61-10.68,12.18-8.17,4.72-15.38,4.89-17,2.1A2.92,2.92,0,0,1,890.42,361.27Z"/><path class="cls-3" d="M917.46,348.47a1.91,1.91,0,0,0-.23-1c-.59-1-2.48-1.5-5-1.25A27.27,27.27,0,0,0,901.61,350c-6.61,3.82-10.18,8.68-10.18,11.32a1.91,1.91,0,0,0,.23,1c.59,1,2.48,1.5,5,1.25a27.27,27.27,0,0,0,10.58-3.72c6.61-3.82,10.18-8.68,10.18-11.31h0m2,0c0,3.79-4.45,9.16-11.18,13-8,4.63-16.24,5.41-18.35,1.74a3.9,3.9,0,0,1-.5-2c0-3.79,4.45-9.16,11.18-13,8-4.63,16.24-5.41,18.35-1.74a3.9,3.9,0,0,1,.5,2Z"/><rect class="cls-1" x="889.42" y="301.78" width="30.04" height="42.39"/><path class="cls-2" d="M890.42,327.07a2.92,2.92,0,0,1,.37-1.48c1.61-2.79,8.82-2.61,17,2.1,6.19,3.57,10.68,8.7,10.68,12.18a2.92,2.92,0,0,1-.37,1.48c-1.61,2.79-8.82,2.61-17-2.1C894.92,335.68,890.42,330.56,890.42,327.07Z"/><path class="cls-3" d="M917.46,339.88c0-2.63-3.57-7.5-10.18-11.32a27.27,27.27,0,0,0-10.58-3.72c-2.57-.24-4.45.23-5,1.25a1.91,1.91,0,0,0-.23,1c0,2.63,3.57,7.5,10.18,11.32a27.27,27.27,0,0,0,10.58,3.72c2.57.24,4.45-.23,5-1.25a1.91,1.91,0,0,0,.23-1h0m2,0a3.9,3.9,0,0,1-.5,2c-2.12,3.67-10.34,2.89-18.35-1.74-6.73-3.89-11.18-9.25-11.18-13a3.9,3.9,0,0,1,.5-2c2.12-3.67,10.34-2.89,18.35,1.74,6.73,3.89,11.18,9.25,11.18,13Z"/><path class="cls-2" d="M890.42,318.88c0-3.48,4.49-8.61,10.68-12.18,8.17-4.71,15.38-4.89,17-2.1a2.92,2.92,0,0,1,.37,1.48c0,3.48-4.49,8.61-10.68,12.18-8.17,4.72-15.38,4.89-17,2.1A2.92,2.92,0,0,1,890.42,318.88Z"/><path class="cls-3" d="M917.46,306.07a1.91,1.91,0,0,0-.23-1c-.59-1-2.48-1.5-5-1.25a27.27,27.27,0,0,0-10.58,3.72c-6.61,3.82-10.18,8.68-10.18,11.32a1.91,1.91,0,0,0,.23,1c.59,1,2.48,1.5,5,1.25a27.27,27.27,0,0,0,10.58-3.72c6.61-3.82,10.18-8.68,10.18-11.31h0m2,0c0,3.79-4.45,9.16-11.18,13-8,4.63-16.24,5.41-18.35,1.74a3.9,3.9,0,0,1-.5-2c0-3.79,4.45-9.16,11.18-13,8-4.63,16.24-5.41,18.35-1.74a3.9,3.9,0,0,1,.5,2Z"/><rect class="cls-1" x="889.42" y="259.38" width="30.04" height="42.39"/><path class="cls-2" d="M890.42,284.68a2.92,2.92,0,0,1,.37-1.48c1.61-2.79,8.82-2.61,17,2.1,6.19,3.57,10.68,8.7,10.68,12.18a2.92,2.92,0,0,1-.37,1.48c-1.61,2.79-8.82,2.61-17-2.1C894.92,293.28,890.42,288.16,890.42,284.68Z"/><path class="cls-3" d="M917.46,297.48c0-2.63-3.57-7.5-10.18-11.32a27.27,27.27,0,0,0-10.58-3.72c-2.57-.24-4.45.23-5,1.25a1.91,1.91,0,0,0-.23,1c0,2.63,3.57,7.5,10.18,11.32a27.27,27.27,0,0,0,10.58,3.72c2.57.24,4.45-.23,5-1.25a1.91,1.91,0,0,0,.23-1h0m2,0a3.9,3.9,0,0,1-.5,2c-2.12,3.67-10.34,2.89-18.35-1.74-6.73-3.89-11.18-9.25-11.18-13a3.9,3.9,0,0,1,.5-2c2.12-3.67,10.34-2.89,18.35,1.74,6.73,3.89,11.18,9.25,11.18,13Z"/><path class="cls-2" d="M890.42,276.48c0-3.48,4.49-8.61,10.68-12.18,8.17-4.71,15.38-4.89,17-2.1a2.92,2.92,0,0,1,.37,1.48c0,3.48-4.49,8.61-10.68,12.18-8.17,4.72-15.38,4.89-17,2.1A2.92,2.92,0,0,1,890.42,276.48Z"/><path class="cls-3" d="M917.46,263.68a1.91,1.91,0,0,0-.23-1c-.59-1-2.48-1.5-5-1.25a27.27,27.27,0,0,0-10.58,3.72c-6.61,3.82-10.18,8.68-10.18,11.32a1.91,1.91,0,0,0,.23,1c.59,1,2.48,1.5,5,1.25A27.27,27.27,0,0,0,907.28,275c6.61-3.82,10.18-8.68,10.18-11.31h0m2,0c0,3.79-4.45,9.16-11.18,13-8,4.63-16.24,5.41-18.35,1.74a3.9,3.9,0,0,1-.5-2c0-3.79,4.45-9.16,11.18-13,8-4.63,16.24-5.41,18.35-1.74a3.9,3.9,0,0,1,.5,2Z"/><rect class="cls-1" x="889.42" y="216.99" width="30.04" height="42.39"/><path class="cls-2" d="M890.42,242.28a2.92,2.92,0,0,1,.37-1.48c1.61-2.79,8.82-2.61,17,2.1,6.19,3.57,10.68,8.7,10.68,12.18a2.92,2.92,0,0,1-.37,1.48c-1.61,2.79-8.82,2.61-17-2.1C894.92,250.89,890.42,245.77,890.42,242.28Z"/><path class="cls-3" d="M917.46,255.09c0-2.63-3.57-7.5-10.18-11.32a27.27,27.27,0,0,0-10.58-3.72c-2.57-.24-4.45.23-5,1.25a1.91,1.91,0,0,0-.23,1c0,2.63,3.57,7.5,10.18,11.32a27.27,27.27,0,0,0,10.58,3.72c2.57.24,4.45-.23,5-1.25a1.91,1.91,0,0,0,.23-1h0m2,0a3.9,3.9,0,0,1-.5,2c-2.12,3.67-10.34,2.89-18.35-1.74-6.73-3.89-11.18-9.25-11.18-13a3.9,3.9,0,0,1,.5-2c2.12-3.67,10.34-2.89,18.35,1.74,6.73,3.89,11.18,9.25,11.18,13Z"/><path class="cls-2" d="M890.42,234.09c0-3.48,4.49-8.61,10.68-12.18,8.17-4.71,15.38-4.89,17-2.1a2.92,2.92,0,0,1,.37,1.48c0,3.48-4.49,8.61-10.68,12.18-8.17,4.72-15.38,4.89-17,2.1A2.92,2.92,0,0,1,890.42,234.09Z"/><path class="cls-3" d="M917.46,221.28a1.91,1.91,0,0,0-.23-1c-.59-1-2.48-1.5-5-1.25a27.27,27.27,0,0,0-10.58,3.72c-6.61,3.82-10.18,8.68-10.18,11.32a1.91,1.91,0,0,0,.23,1c.59,1,2.48,1.5,5,1.25a27.27,27.27,0,0,0,10.58-3.72c6.61-3.82,10.18-8.68,10.18-11.31h0m2,0c0,3.79-4.45,9.16-11.18,13-8,4.63-16.24,5.41-18.35,1.74a3.9,3.9,0,0,1-.5-2c0-3.79,4.45-9.16,11.18-13,8-4.63,16.24-5.41,18.35-1.74a3.9,3.9,0,0,1,.5,2Z"/><rect class="cls-1" x="889.42" y="174.6" width="30.04" height="42.39"/><path class="cls-2" d="M890.42,199.89a2.92,2.92,0,0,1,.37-1.48c1.61-2.79,8.82-2.61,17,2.1,6.19,3.57,10.68,8.7,10.68,12.18a2.92,2.92,0,0,1-.37,1.48c-1.61,2.79-8.82,2.61-17-2.1C894.92,208.5,890.42,203.37,890.42,199.89Z"/><path class="cls-3" d="M917.46,212.69c0-2.63-3.57-7.5-10.18-11.32a27.27,27.27,0,0,0-10.58-3.72c-2.57-.24-4.45.23-5,1.25a1.91,1.91,0,0,0-.23,1c0,2.63,3.57,7.5,10.18,11.32a27.27,27.27,0,0,0,10.58,3.72c2.57.24,4.45-.23,5-1.25a1.91,1.91,0,0,0,.23-1h0m2,0a3.9,3.9,0,0,1-.5,2c-2.12,3.67-10.34,2.89-18.35-1.74-6.73-3.89-11.18-9.25-11.18-13a3.9,3.9,0,0,1,.5-2c2.12-3.67,10.34-2.89,18.35,1.74,6.73,3.89,11.18,9.25,11.18,13Z"/><path class="cls-2" d="M890.42,191.69c0-3.48,4.49-8.61,10.68-12.18,8.17-4.71,15.38-4.89,17-2.1a2.92,2.92,0,0,1,.37,1.48c0,3.48-4.49,8.61-10.68,12.18-8.17,4.72-15.38,4.89-17,2.1A2.92,2.92,0,0,1,890.42,191.69Z"/><path class="cls-3" d="M917.46,178.89a1.91,1.91,0,0,0-.23-1c-.59-1-2.48-1.5-5-1.25a27.27,27.27,0,0,0-10.58,3.72c-6.61,3.82-10.18,8.68-10.18,11.32a1.91,1.91,0,0,0,.23,1c.59,1,2.48,1.5,5,1.25a27.27,27.27,0,0,0,10.58-3.72c6.61-3.82,10.18-8.68,10.18-11.31h0m2,0c0,3.79-4.45,9.16-11.18,13-8,4.63-16.24,5.41-18.35,1.74a3.9,3.9,0,0,1-.5-2c0-3.79,4.45-9.16,11.18-13,8-4.63,16.24-5.41,18.35-1.74a3.9,3.9,0,0,1,.5,2Z"/><rect class="cls-1" x="889.42" y="132.2" width="30.04" height="42.39"/><path class="cls-2" d="M890.42,157.5a2.92,2.92,0,0,1,.37-1.48c1.61-2.79,8.82-2.61,17,2.1,6.19,3.57,10.68,8.7,10.68,12.18a2.92,2.92,0,0,1-.37,1.48c-1.61,2.79-8.82,2.61-17-2.1C894.92,166.1,890.42,161,890.42,157.5Z"/><path class="cls-3" d="M917.46,170.3c0-2.63-3.57-7.5-10.18-11.32a27.27,27.27,0,0,0-10.58-3.72c-2.57-.24-4.45.23-5,1.25a1.91,1.91,0,0,0-.23,1c0,2.63,3.57,7.5,10.18,11.32a27.27,27.27,0,0,0,10.58,3.72c2.57.24,4.45-.23,5-1.25a1.91,1.91,0,0,0,.23-1h0m2,0a3.9,3.9,0,0,1-.5,2c-2.12,3.67-10.34,2.89-18.35-1.74-6.73-3.89-11.18-9.25-11.18-13a3.9,3.9,0,0,1,.5-2c2.12-3.67,10.34-2.89,18.35,1.74,6.73,3.89,11.18,9.25,11.18,13Z"/><path class="cls-2" d="M890.42,149.3c0-3.48,4.49-8.61,10.68-12.18,8.17-4.71,15.38-4.89,17-2.1a2.92,2.92,0,0,1,.37,1.48c0,3.48-4.49,8.61-10.68,12.18-8.17,4.72-15.38,4.89-17,2.1A2.92,2.92,0,0,1,890.42,149.3Z"/><path class="cls-3" d="M917.46,136.5a1.91,1.91,0,0,0-.23-1c-.59-1-2.48-1.5-5-1.25A27.27,27.27,0,0,0,901.61,138c-6.61,3.82-10.18,8.68-10.18,11.32a1.91,1.91,0,0,0,.23,1c.59,1,2.48,1.5,5,1.25a27.27,27.27,0,0,0,10.58-3.72c6.61-3.82,10.18-8.68,10.18-11.31h0m2,0c0,3.79-4.45,9.16-11.18,13-8,4.63-16.24,5.41-18.35,1.74a3.9,3.9,0,0,1-.5-2c0-3.79,4.45-9.16,11.18-13,8-4.63,16.24-5.41,18.35-1.74a3.9,3.9,0,0,1,.5,2Z"/><rect class="cls-1" x="889.42" y="89.81" width="30.04" height="42.39"/><path class="cls-2" d="M890.42,115.1a2.92,2.92,0,0,1,.37-1.48c1.61-2.79,8.82-2.61,17,2.1,6.19,3.57,10.68,8.7,10.68,12.18a2.92,2.92,0,0,1-.37,1.48c-1.61,2.79-8.82,2.61-17-2.1C894.92,123.71,890.42,118.59,890.42,115.1Z"/><path class="cls-3" d="M917.46,127.91c0-2.63-3.57-7.5-10.18-11.32a27.27,27.27,0,0,0-10.58-3.72c-2.57-.24-4.45.23-5,1.25a1.91,1.91,0,0,0-.23,1c0,2.63,3.57,7.5,10.18,11.32a27.27,27.27,0,0,0,10.58,3.72c2.57.24,4.45-.23,5-1.25a1.91,1.91,0,0,0,.23-1h0m2,0a3.9,3.9,0,0,1-.5,2c-2.12,3.67-10.34,2.89-18.35-1.74-6.73-3.89-11.18-9.25-11.18-13a3.9,3.9,0,0,1,.5-2c2.12-3.67,10.34-2.89,18.35,1.74,6.73,3.89,11.18,9.25,11.18,13Z"/><path class="cls-2" d="M890.42,106.91c0-3.48,4.49-8.61,10.68-12.18,8.17-4.71,15.38-4.89,17-2.1a2.92,2.92,0,0,1,.37,1.48c0,3.48-4.49,8.61-10.68,12.18-8.17,4.72-15.38,4.89-17,2.1A2.92,2.92,0,0,1,890.42,106.91Z"/><path class="cls-3" d="M917.46,94.1a1.91,1.91,0,0,0-.23-1c-.59-1-2.48-1.5-5-1.25a27.27,27.27,0,0,0-10.58,3.72c-6.61,3.82-10.18,8.68-10.18,11.32a1.91,1.91,0,0,0,.23,1c.59,1,2.48,1.5,5,1.25a27.27,27.27,0,0,0,10.58-3.72c6.61-3.82,10.18-8.68,10.18-11.31h0m2,0c0,3.79-4.45,9.16-11.18,13-8,4.63-16.24,5.41-18.35,1.74a3.9,3.9,0,0,1-.5-2c0-3.79,4.45-9.16,11.18-13,8-4.63,16.24-5.41,18.35-1.74a3.9,3.9,0,0,1,.5,2Z"/><rect class="cls-1" x="889.42" y="47.41" width="30.04" height="42.39"/><path class="cls-2" d="M890.42,72.71a2.92,2.92,0,0,1,.37-1.48c1.61-2.79,8.82-2.61,17,2.1,6.19,3.57,10.68,8.7,10.68,12.18A2.92,2.92,0,0,1,918.1,87c-1.61,2.79-8.82,2.61-17-2.1C894.92,81.32,890.42,76.19,890.42,72.71Z"/><path class="cls-3" d="M917.46,85.51c0-2.63-3.57-7.5-10.18-11.32a27.27,27.27,0,0,0-10.58-3.72c-2.57-.24-4.45.23-5,1.25a1.91,1.91,0,0,0-.23,1c0,2.63,3.57,7.5,10.18,11.32a27.27,27.27,0,0,0,10.58,3.72c2.57.24,4.45-.23,5-1.25a1.91,1.91,0,0,0,.23-1h0m2,0a3.9,3.9,0,0,1-.5,2c-2.12,3.67-10.34,2.89-18.35-1.74-6.73-3.89-11.18-9.25-11.18-13a3.9,3.9,0,0,1,.5-2c2.12-3.67,10.34-2.89,18.35,1.74,6.73,3.89,11.18,9.25,11.18,13Z"/><path class="cls-2" d="M890.42,64.51c0-3.48,4.49-8.61,10.68-12.18,8.17-4.71,15.38-4.89,17-2.1a2.92,2.92,0,0,1,.37,1.48c0,3.48-4.49,8.61-10.68,12.18-8.17,4.72-15.38,4.89-17,2.1A2.92,2.92,0,0,1,890.42,64.51Z"/><path class="cls-3" d="M917.46,51.71a1.91,1.91,0,0,0-.23-1c-.59-1-2.48-1.5-5-1.25a27.27,27.27,0,0,0-10.58,3.72C895,57,891.42,61.88,891.42,64.51a1.91,1.91,0,0,0,.23,1c.59,1,2.48,1.5,5,1.25A27.27,27.27,0,0,0,907.28,63c6.61-3.82,10.18-8.68,10.18-11.31h0m2,0c0,3.79-4.45,9.16-11.18,13-8,4.63-16.24,5.41-18.35,1.74a3.9,3.9,0,0,1-.5-2c0-3.79,4.45-9.16,11.18-13,8-4.63,16.24-5.41,18.35-1.74a3.9,3.9,0,0,1,.5,2Z"/><rect class="cls-1" x="873.74" y="9.37" width="30.04" height="42.39" transform="translate(238.7 637.4) rotate(-45)"/><path class="cls-2" d="M881.74,43.37a2.92,2.92,0,0,1-.79-1.31c-.83-3.11,4.39-8.09,13.5-10.53,6.91-1.85,13.71-1.41,16.17,1.06a2.92,2.92,0,0,1,.79,1.31C912.24,37,907,42,897.91,44.43,891,46.28,884.2,45.84,881.74,43.37Z"/><path class="cls-3" d="M909.91,33.31c-1.86-1.86-7.82-2.78-15.2-.8a27.27,27.27,0,0,0-10.11,4.85c-2,1.64-3,3.31-2.68,4.45a1.91,1.91,0,0,0,.53.86c1.86,1.86,7.82,2.78,15.2.8a27.27,27.27,0,0,0,10.11-4.85c2-1.64,3-3.31,2.68-4.45a1.91,1.91,0,0,0-.53-.86h0m1.41-1.41a3.9,3.9,0,0,1,1,1.75c1.1,4.09-5.26,9.35-14.21,11.75-7.51,2-14.45,1.36-17.13-1.32a3.9,3.9,0,0,1-1-1.75c-1.1-4.09,5.26-9.35,14.21-11.75,7.51-2,14.45-1.36,17.13,1.32Z"/><path class="cls-2" d="M875.94,37.58c-2.46-2.46-2.91-9.26-1.06-16.17,2.44-9.11,7.41-14.33,10.53-13.5a2.92,2.92,0,0,1,1.31.79c2.46,2.46,2.91,9.26,1.06,16.17-2.44,9.11-7.41,14.33-10.53,13.5A2.92,2.92,0,0,1,875.94,37.58Z"/><path class="cls-3" d="M886,9.41a1.91,1.91,0,0,0-.86-.53c-1.15-.31-2.81.7-4.45,2.68a27.27,27.27,0,0,0-4.85,10.11c-2,7.38-1.06,13.34.8,15.2a1.91,1.91,0,0,0,.86.53c1.15.31,2.81-.7,4.45-2.68a27.27,27.27,0,0,0,4.85-10.11c2-7.38,1.06-13.34-.8-15.2h0M887.42,8c2.68,2.68,3.33,9.62,1.32,17.13-2.4,8.94-7.66,15.3-11.75,14.21a3.9,3.9,0,0,1-1.75-1c-2.68-2.68-3.33-9.62-1.32-17.13,2.4-8.94,7.66-15.3,11.75-14.21a3.9,3.9,0,0,1,1.75,1Z"/><rect class="cls-1" x="828.42" y="2.34" width="42.39" height="30.04"/><path class="cls-2" d="M853.71,31.38a2.92,2.92,0,0,1-1.48-.37c-2.79-1.61-2.61-8.82,2.1-17,3.57-6.19,8.7-10.68,12.18-10.68a2.92,2.92,0,0,1,1.48.37c2.79,1.61,2.61,8.82-2.1,17C862.32,26.89,857.2,31.38,853.71,31.38Z"/><path class="cls-3" d="M866.52,4.34c-2.63,0-7.5,3.57-11.32,10.18a27.27,27.27,0,0,0-3.72,10.58c-.24,2.57.23,4.45,1.25,5a1.91,1.91,0,0,0,1,.23c2.63,0,7.5-3.57,11.32-10.18a27.27,27.27,0,0,0,3.72-10.58c.24-2.57-.23-4.45-1.25-5a1.91,1.91,0,0,0-1-.23h0m0-2a3.9,3.9,0,0,1,2,.5c3.67,2.12,2.89,10.34-1.74,18.35-3.89,6.73-9.25,11.18-13,11.18a3.9,3.9,0,0,1-2-.5c-3.67-2.12-2.89-10.34,1.74-18.35,3.89-6.73,9.25-11.18,13-11.18Z"/><path class="cls-2" d="M845.52,31.38c-3.48,0-8.61-4.49-12.18-10.68-4.71-8.17-4.89-15.38-2.1-17a2.92,2.92,0,0,1,1.48-.37c3.48,0,8.61,4.49,12.18,10.68,4.72,8.17,4.89,15.38,2.1,17A2.92,2.92,0,0,1,845.52,31.38Z"/><path class="cls-3" d="M832.71,4.34a1.91,1.91,0,0,0-1,.23c-1,.59-1.5,2.48-1.25,5a27.27,27.27,0,0,0,3.72,10.58c3.82,6.61,8.68,10.18,11.32,10.18a1.91,1.91,0,0,0,1-.23c1-.59,1.5-2.48,1.25-5A27.27,27.27,0,0,0,844,14.52c-3.82-6.61-8.68-10.18-11.31-10.18h0m0-2c3.79,0,9.16,4.45,13,11.18,4.63,8,5.41,16.24,1.74,18.35a3.9,3.9,0,0,1-2,.5c-3.79,0-9.16-4.45-13-11.18-4.63-8-5.41-16.24-1.74-18.35a3.9,3.9,0,0,1,2-.5Z"/><rect class="cls-1" x="786.02" y="2.34" width="42.39" height="30.04"/><path class="cls-2" d="M811.32,31.38a2.92,2.92,0,0,1-1.48-.37c-2.79-1.61-2.61-8.82,2.1-17,3.57-6.19,8.7-10.68,12.18-10.68a2.92,2.92,0,0,1,1.48.37c2.79,1.61,2.61,8.82-2.1,17C819.92,26.89,814.8,31.38,811.32,31.38Z"/><path class="cls-3" d="M824.12,4.34c-2.63,0-7.5,3.57-11.32,10.18a27.27,27.27,0,0,0-3.72,10.58c-.24,2.57.23,4.45,1.25,5a1.91,1.91,0,0,0,1,.23c2.63,0,7.5-3.57,11.32-10.18a27.27,27.27,0,0,0,3.72-10.58c.24-2.57-.23-4.45-1.25-5a1.91,1.91,0,0,0-1-.23h0m0-2a3.9,3.9,0,0,1,2,.5C829.77,5,829,13.18,824.37,21.19c-3.89,6.73-9.25,11.18-13,11.18a3.9,3.9,0,0,1-2-.5c-3.67-2.12-2.89-10.34,1.74-18.35,3.89-6.73,9.25-11.18,13-11.18Z"/><path class="cls-2" d="M803.12,31.38c-3.48,0-8.61-4.49-12.18-10.68-4.71-8.17-4.89-15.38-2.1-17a2.92,2.92,0,0,1,1.48-.37c3.48,0,8.61,4.49,12.18,10.68,4.72,8.17,4.89,15.38,2.1,17A2.92,2.92,0,0,1,803.12,31.38Z"/><path class="cls-3" d="M790.32,4.34a1.91,1.91,0,0,0-1,.23c-1,.59-1.5,2.48-1.25,5a27.27,27.27,0,0,0,3.72,10.58c3.82,6.61,8.68,10.18,11.32,10.18a1.91,1.91,0,0,0,1-.23c1-.59,1.5-2.48,1.25-5a27.27,27.27,0,0,0-3.72-10.58C797.81,7.91,793,4.34,790.32,4.34h0m0-2c3.79,0,9.16,4.45,13,11.18,4.63,8,5.41,16.24,1.74,18.35a3.9,3.9,0,0,1-2,.5c-3.79,0-9.16-4.45-13-11.18-4.63-8-5.41-16.24-1.74-18.35a3.9,3.9,0,0,1,2-.5Z"/><rect class="cls-1" x="743.63" y="2.34" width="42.39" height="30.04"/><path class="cls-2" d="M768.92,31.38a2.92,2.92,0,0,1-1.48-.37c-2.79-1.61-2.61-8.82,2.1-17,3.57-6.19,8.7-10.68,12.18-10.68a2.92,2.92,0,0,1,1.48.37c2.79,1.61,2.61,8.82-2.1,17C777.53,26.89,772.41,31.38,768.92,31.38Z"/><path class="cls-3" d="M781.73,4.34c-2.63,0-7.5,3.57-11.32,10.18a27.27,27.27,0,0,0-3.72,10.58c-.24,2.57.23,4.45,1.25,5a1.91,1.91,0,0,0,1,.23c2.63,0,7.5-3.57,11.32-10.18A27.27,27.27,0,0,0,784,9.62c.24-2.57-.23-4.45-1.25-5a1.91,1.91,0,0,0-1-.23h0m0-2a3.9,3.9,0,0,1,2,.5C787.38,5,786.6,13.18,782,21.19c-3.89,6.73-9.25,11.18-13,11.18a3.9,3.9,0,0,1-2-.5c-3.67-2.12-2.89-10.34,1.74-18.35,3.89-6.73,9.25-11.18,13-11.18Z"/><path class="cls-2" d="M760.73,31.38c-3.48,0-8.61-4.49-12.18-10.68-4.71-8.17-4.89-15.38-2.1-17a2.92,2.92,0,0,1,1.48-.37c3.48,0,8.61,4.49,12.18,10.68,4.72,8.17,4.89,15.38,2.1,17A2.92,2.92,0,0,1,760.73,31.38Z"/><path class="cls-3" d="M747.93,4.34a1.91,1.91,0,0,0-1,.23c-1,.59-1.5,2.48-1.25,5a27.27,27.27,0,0,0,3.72,10.58c3.82,6.61,8.68,10.18,11.32,10.18a1.91,1.91,0,0,0,1-.23c1-.59,1.5-2.48,1.25-5a27.27,27.27,0,0,0-3.72-10.58c-3.82-6.61-8.68-10.18-11.31-10.18h0m0-2c3.79,0,9.16,4.45,13,11.18,4.63,8,5.41,16.24,1.74,18.35a3.9,3.9,0,0,1-2,.5c-3.79,0-9.16-4.45-13-11.18-4.63-8-5.41-16.24-1.74-18.35a3.9,3.9,0,0,1,2-.5Z"/><rect class="cls-1" x="701.24" y="2.34" width="42.39" height="30.04"/><path class="cls-2" d="M726.53,31.38a2.92,2.92,0,0,1-1.48-.37c-2.79-1.61-2.61-8.82,2.1-17,3.57-6.19,8.7-10.68,12.18-10.68a2.92,2.92,0,0,1,1.48.37c2.79,1.61,2.61,8.82-2.1,17C735.14,26.89,730,31.38,726.53,31.38Z"/><path class="cls-3" d="M739.33,4.34c-2.63,0-7.5,3.57-11.32,10.18A27.27,27.27,0,0,0,724.3,25.1c-.24,2.57.23,4.45,1.25,5a1.91,1.91,0,0,0,1,.23c2.63,0,7.5-3.57,11.32-10.18a27.27,27.27,0,0,0,3.72-10.58c.24-2.57-.23-4.45-1.25-5a1.91,1.91,0,0,0-1-.23h0m0-2a3.9,3.9,0,0,1,2,.5C745,5,744.21,13.18,739.58,21.19c-3.89,6.73-9.25,11.18-13,11.18a3.9,3.9,0,0,1-2-.5c-3.67-2.12-2.89-10.34,1.74-18.35,3.89-6.73,9.25-11.18,13-11.18Z"/><path class="cls-2" d="M718.34,31.38c-3.48,0-8.61-4.49-12.18-10.68-4.71-8.17-4.89-15.38-2.1-17a2.92,2.92,0,0,1,1.48-.37c3.48,0,8.61,4.49,12.18,10.68,4.72,8.17,4.89,15.38,2.1,17A2.92,2.92,0,0,1,718.34,31.38Z"/><path class="cls-3" d="M705.53,4.34a1.91,1.91,0,0,0-1,.23c-1,.59-1.5,2.48-1.25,5A27.27,27.27,0,0,0,707,20.19c3.82,6.61,8.68,10.18,11.32,10.18a1.91,1.91,0,0,0,1-.23c1-.59,1.5-2.48,1.25-5a27.27,27.27,0,0,0-3.72-10.58C713,7.91,708.17,4.34,705.53,4.34h0m0-2c3.79,0,9.16,4.45,13,11.18,4.63,8,5.41,16.24,1.74,18.35a3.9,3.9,0,0,1-2,.5c-3.79,0-9.16-4.45-13-11.18-4.63-8-5.41-16.24-1.74-18.35a3.9,3.9,0,0,1,2-.5Z"/><rect class="cls-1" x="658.84" y="2.34" width="42.39" height="30.04"/><path class="cls-2" d="M684.14,31.38a2.92,2.92,0,0,1-1.48-.37c-2.79-1.61-2.61-8.82,2.1-17,3.57-6.19,8.7-10.68,12.18-10.68a2.92,2.92,0,0,1,1.48.37c2.79,1.61,2.61,8.82-2.1,17C692.74,26.89,687.62,31.38,684.14,31.38Z"/><path class="cls-3" d="M696.94,4.34c-2.63,0-7.5,3.57-11.32,10.18A27.27,27.27,0,0,0,681.9,25.1c-.24,2.57.23,4.45,1.25,5a1.91,1.91,0,0,0,1,.23c2.63,0,7.5-3.57,11.32-10.18a27.27,27.27,0,0,0,3.72-10.58c.24-2.57-.23-4.45-1.25-5a1.91,1.91,0,0,0-1-.23h0m0-2a3.9,3.9,0,0,1,2,.5c3.67,2.12,2.89,10.34-1.74,18.35-3.89,6.73-9.25,11.18-13,11.18a3.9,3.9,0,0,1-2-.5c-3.67-2.12-2.89-10.34,1.74-18.35,3.89-6.73,9.25-11.18,13-11.18Z"/><path class="cls-2" d="M675.94,31.38c-3.48,0-8.61-4.49-12.18-10.68-4.71-8.17-4.89-15.38-2.1-17a2.92,2.92,0,0,1,1.48-.37c3.48,0,8.61,4.49,12.18,10.68,4.72,8.17,4.89,15.38,2.1,17A2.92,2.92,0,0,1,675.94,31.38Z"/><path class="cls-3" d="M663.14,4.34a1.91,1.91,0,0,0-1,.23c-1,.59-1.5,2.48-1.25,5a27.27,27.27,0,0,0,3.72,10.58c3.82,6.61,8.68,10.18,11.32,10.18a1.91,1.91,0,0,0,1-.23c1-.59,1.5-2.48,1.25-5a27.27,27.27,0,0,0-3.72-10.58c-3.82-6.61-8.68-10.18-11.31-10.18h0m0-2c3.79,0,9.16,4.45,13,11.18,4.63,8,5.41,16.24,1.74,18.35a3.9,3.9,0,0,1-2,.5c-3.79,0-9.16-4.45-13-11.18-4.63-8-5.41-16.24-1.74-18.35a3.9,3.9,0,0,1,2-.5Z"/><rect class="cls-1" x="616.45" y="2.34" width="42.39" height="30.04"/><path class="cls-2" d="M641.74,31.38a2.92,2.92,0,0,1-1.48-.37c-2.79-1.61-2.61-8.82,2.1-17,3.57-6.19,8.7-10.68,12.18-10.68a2.92,2.92,0,0,1,1.48.37c2.79,1.61,2.61,8.82-2.1,17C650.35,26.89,645.23,31.38,641.74,31.38Z"/><path class="cls-3" d="M654.55,4.34c-2.63,0-7.5,3.57-11.32,10.18a27.27,27.27,0,0,0-3.72,10.58c-.24,2.57.23,4.45,1.25,5a1.91,1.91,0,0,0,1,.23c2.63,0,7.5-3.57,11.32-10.18a27.27,27.27,0,0,0,3.72-10.58c.24-2.57-.23-4.45-1.25-5a1.91,1.91,0,0,0-1-.23h0m0-2a3.9,3.9,0,0,1,2,.5c3.67,2.12,2.89,10.34-1.74,18.35-3.89,6.73-9.25,11.18-13,11.18a3.9,3.9,0,0,1-2-.5c-3.67-2.12-2.89-10.34,1.74-18.35,3.89-6.73,9.25-11.18,13-11.18Z"/><path class="cls-2" d="M633.55,31.38c-3.48,0-8.61-4.49-12.18-10.68-4.71-8.17-4.89-15.38-2.1-17a2.92,2.92,0,0,1,1.48-.37c3.48,0,8.61,4.49,12.18,10.68,4.72,8.17,4.89,15.38,2.1,17A2.92,2.92,0,0,1,633.55,31.38Z"/><path class="cls-3" d="M620.74,4.34a1.91,1.91,0,0,0-1,.23c-1,.59-1.5,2.48-1.25,5a27.27,27.27,0,0,0,3.72,10.58c3.82,6.61,8.68,10.18,11.32,10.18a1.91,1.91,0,0,0,1-.23c1-.59,1.5-2.48,1.25-5a27.27,27.27,0,0,0-3.72-10.58c-3.82-6.61-8.68-10.18-11.31-10.18h0m0-2c3.79,0,9.16,4.45,13,11.18,4.63,8,5.41,16.24,1.74,18.35a3.9,3.9,0,0,1-2,.5c-3.79,0-9.16-4.45-13-11.18-4.63-8-5.41-16.24-1.74-18.35a3.9,3.9,0,0,1,2-.5Z"/><rect class="cls-1" x="574.05" y="2.34" width="42.39" height="30.04"/><path class="cls-2" d="M599.35,31.38a2.92,2.92,0,0,1-1.48-.37c-2.79-1.61-2.61-8.82,2.1-17,3.57-6.19,8.7-10.68,12.18-10.68a2.92,2.92,0,0,1,1.48.37c2.79,1.61,2.61,8.82-2.1,17C608,26.89,602.83,31.38,599.35,31.38Z"/><path class="cls-3" d="M612.15,4.34c-2.63,0-7.5,3.57-11.32,10.18a27.27,27.27,0,0,0-3.72,10.58c-.24,2.57.23,4.45,1.25,5a1.91,1.91,0,0,0,1,.23c2.63,0,7.5-3.57,11.32-10.18a27.27,27.27,0,0,0,3.72-10.58c.24-2.57-.23-4.45-1.25-5a1.91,1.91,0,0,0-1-.23h0m0-2a3.9,3.9,0,0,1,2,.5C617.8,5,617,13.18,612.4,21.19c-3.89,6.73-9.25,11.18-13,11.18a3.9,3.9,0,0,1-2-.5c-3.67-2.12-2.89-10.34,1.74-18.35,3.89-6.73,9.25-11.18,13-11.18Z"/><path class="cls-2" d="M591.15,31.38c-3.48,0-8.61-4.49-12.18-10.68-4.71-8.17-4.89-15.38-2.1-17a2.92,2.92,0,0,1,1.48-.37c3.48,0,8.61,4.49,12.18,10.68,4.72,8.17,4.89,15.38,2.1,17A2.92,2.92,0,0,1,591.15,31.38Z"/><path class="cls-3" d="M578.35,4.34a1.91,1.91,0,0,0-1,.23c-1,.59-1.5,2.48-1.25,5a27.27,27.27,0,0,0,3.72,10.58c3.82,6.61,8.68,10.18,11.32,10.18a1.91,1.91,0,0,0,1-.23c1-.59,1.5-2.48,1.25-5a27.27,27.27,0,0,0-3.72-10.58C585.85,7.91,581,4.34,578.35,4.34h0m0-2c3.79,0,9.16,4.45,13,11.18,4.63,8,5.41,16.24,1.74,18.35a3.9,3.9,0,0,1-2,.5c-3.79,0-9.16-4.45-13-11.18-4.63-8-5.41-16.24-1.74-18.35a3.9,3.9,0,0,1,2-.5Z"/><rect class="cls-1" x="531.66" y="2.34" width="42.39" height="30.04"/><path class="cls-2" d="M557,31.38a2.92,2.92,0,0,1-1.48-.37c-2.79-1.61-2.61-8.82,2.1-17,3.57-6.19,8.7-10.68,12.18-10.68a2.92,2.92,0,0,1,1.48.37c2.79,1.61,2.61,8.82-2.1,17C565.56,26.89,560.44,31.38,557,31.38Z"/><path class="cls-3" d="M569.76,4.34c-2.63,0-7.5,3.57-11.32,10.18a27.27,27.27,0,0,0-3.72,10.58c-.24,2.57.23,4.45,1.25,5a1.91,1.91,0,0,0,1,.23c2.63,0,7.5-3.57,11.32-10.18A27.27,27.27,0,0,0,572,9.62c.24-2.57-.23-4.45-1.25-5a1.91,1.91,0,0,0-1-.23h0m0-2a3.9,3.9,0,0,1,2,.5C575.41,5,574.63,13.18,570,21.19c-3.89,6.73-9.25,11.18-13,11.18a3.9,3.9,0,0,1-2-.5c-3.67-2.12-2.89-10.34,1.74-18.35,3.89-6.73,9.25-11.18,13-11.18Z"/><path class="cls-2" d="M548.76,31.38c-3.48,0-8.61-4.49-12.18-10.68-4.71-8.17-4.89-15.38-2.1-17A2.92,2.92,0,0,1,536,3.34c3.48,0,8.61,4.49,12.18,10.68,4.72,8.17,4.89,15.38,2.1,17A2.92,2.92,0,0,1,548.76,31.38Z"/><path class="cls-3" d="M536,4.34a1.91,1.91,0,0,0-1,.23c-1,.59-1.5,2.48-1.25,5a27.27,27.27,0,0,0,3.72,10.58c3.82,6.61,8.68,10.18,11.32,10.18a1.91,1.91,0,0,0,1-.23c1-.59,1.5-2.48,1.25-5a27.27,27.27,0,0,0-3.72-10.58C543.45,7.91,538.59,4.34,536,4.34h0m0-2c3.79,0,9.16,4.45,13,11.18,4.63,8,5.41,16.24,1.74,18.35a3.9,3.9,0,0,1-2,.5c-3.79,0-9.16-4.45-13-11.18-4.63-8-5.41-16.24-1.74-18.35a3.9,3.9,0,0,1,2-.5Z"/><rect class="cls-1" x="489.27" y="2.34" width="42.39" height="30.04"/><path class="cls-2" d="M514.56,31.38a2.92,2.92,0,0,1-1.48-.37c-2.79-1.61-2.61-8.82,2.1-17,3.57-6.19,8.7-10.68,12.18-10.68a2.92,2.92,0,0,1,1.48.37c2.79,1.61,2.61,8.82-2.1,17C523.17,26.89,518,31.38,514.56,31.38Z"/><path class="cls-3" d="M527.37,4.34c-2.63,0-7.5,3.57-11.32,10.18a27.27,27.27,0,0,0-3.72,10.58c-.24,2.57.23,4.45,1.25,5a1.91,1.91,0,0,0,1,.23c2.63,0,7.5-3.57,11.32-10.18A27.27,27.27,0,0,0,529.6,9.62c.24-2.57-.23-4.45-1.25-5a1.91,1.91,0,0,0-1-.23h0m0-2a3.9,3.9,0,0,1,2,.5C533,5,532.24,13.18,527.61,21.19c-3.89,6.73-9.25,11.18-13,11.18a3.9,3.9,0,0,1-2-.5c-3.67-2.12-2.89-10.34,1.74-18.35,3.89-6.73,9.25-11.18,13-11.18Z"/><path class="cls-2" d="M506.37,31.38c-3.48,0-8.61-4.49-12.18-10.68-4.71-8.17-4.89-15.38-2.1-17a2.92,2.92,0,0,1,1.48-.37c3.48,0,8.61,4.49,12.18,10.68,4.72,8.17,4.89,15.38,2.1,17A2.92,2.92,0,0,1,506.37,31.38Z"/><path class="cls-3" d="M493.56,4.34a1.91,1.91,0,0,0-1,.23c-1,.59-1.5,2.48-1.25,5a27.27,27.27,0,0,0,3.72,10.58c3.82,6.61,8.68,10.18,11.32,10.18a1.91,1.91,0,0,0,1-.23c1-.59,1.5-2.48,1.25-5a27.27,27.27,0,0,0-3.72-10.58c-3.82-6.61-8.68-10.18-11.31-10.18h0m0-2c3.79,0,9.16,4.45,13,11.18,4.63,8,5.41,16.24,1.74,18.35a3.9,3.9,0,0,1-2,.5c-3.79,0-9.16-4.45-13-11.18-4.63-8-5.41-16.24-1.74-18.35a3.9,3.9,0,0,1,2-.5Z"/><rect class="cls-1" x="446.87" y="2.34" width="42.39" height="30.04"/><path class="cls-2" d="M472.17,31.38a2.92,2.92,0,0,1-1.48-.37c-2.79-1.61-2.61-8.82,2.1-17,3.57-6.19,8.7-10.68,12.18-10.68a2.92,2.92,0,0,1,1.48.37c2.79,1.61,2.61,8.82-2.1,17C480.78,26.89,475.65,31.38,472.17,31.38Z"/><path class="cls-3" d="M485,4.34c-2.63,0-7.5,3.57-11.32,10.18a27.27,27.27,0,0,0-3.72,10.58c-.24,2.57.23,4.45,1.25,5a1.91,1.91,0,0,0,1,.23c2.63,0,7.5-3.57,11.32-10.18a27.27,27.27,0,0,0,3.72-10.58c.24-2.57-.23-4.45-1.25-5a1.91,1.91,0,0,0-1-.23h0m0-2a3.9,3.9,0,0,1,2,.5c3.67,2.12,2.89,10.34-1.74,18.35-3.89,6.73-9.25,11.18-13,11.18a3.9,3.9,0,0,1-2-.5c-3.67-2.12-2.89-10.34,1.74-18.35,3.89-6.73,9.25-11.18,13-11.18Z"/><path class="cls-2" d="M464,31.38c-3.48,0-8.61-4.49-12.18-10.68-4.71-8.17-4.89-15.38-2.1-17a2.92,2.92,0,0,1,1.48-.37c3.48,0,8.61,4.49,12.18,10.68,4.72,8.17,4.89,15.38,2.1,17A2.92,2.92,0,0,1,464,31.38Z"/><path class="cls-3" d="M451.17,4.34a1.91,1.91,0,0,0-1,.23c-1,.59-1.5,2.48-1.25,5a27.27,27.27,0,0,0,3.72,10.58c3.82,6.61,8.68,10.18,11.32,10.18a1.91,1.91,0,0,0,1-.23c1-.59,1.5-2.48,1.25-5a27.27,27.27,0,0,0-3.72-10.58c-3.82-6.61-8.68-10.18-11.31-10.18h0m0-2c3.79,0,9.16,4.45,13,11.18,4.63,8,5.41,16.24,1.74,18.35a3.9,3.9,0,0,1-2,.5c-3.79,0-9.16-4.45-13-11.18-4.63-8-5.41-16.24-1.74-18.35a3.9,3.9,0,0,1,2-.5Z"/><rect class="cls-1" x="404.48" y="2.34" width="42.39" height="30.04"/><path class="cls-2" d="M429.77,31.38a2.92,2.92,0,0,1-1.48-.37c-2.79-1.61-2.61-8.82,2.1-17C434,7.83,439.1,3.34,442.58,3.34a2.92,2.92,0,0,1,1.48.37c2.79,1.61,2.61,8.82-2.1,17C438.38,26.89,433.26,31.38,429.77,31.38Z"/><path class="cls-3" d="M442.58,4.34c-2.63,0-7.5,3.57-11.32,10.18a27.27,27.27,0,0,0-3.72,10.58c-.24,2.57.23,4.45,1.25,5a1.91,1.91,0,0,0,1,.23c2.63,0,7.5-3.57,11.32-10.18a27.27,27.27,0,0,0,3.72-10.58c.24-2.57-.23-4.45-1.25-5a1.91,1.91,0,0,0-1-.23h0m0-2a3.9,3.9,0,0,1,2,.5c3.67,2.12,2.89,10.34-1.74,18.35-3.89,6.73-9.25,11.18-13,11.18a3.9,3.9,0,0,1-2-.5c-3.67-2.12-2.89-10.34,1.74-18.35,3.89-6.73,9.25-11.18,13-11.18Z"/><path class="cls-2" d="M421.58,31.38c-3.48,0-8.61-4.49-12.18-10.68-4.71-8.17-4.89-15.38-2.1-17a2.92,2.92,0,0,1,1.48-.37c3.48,0,8.61,4.49,12.18,10.68,4.72,8.17,4.89,15.38,2.1,17A2.92,2.92,0,0,1,421.58,31.38Z"/><path class="cls-3" d="M408.78,4.34a1.91,1.91,0,0,0-1,.23c-1,.59-1.5,2.48-1.25,5a27.27,27.27,0,0,0,3.72,10.58c3.82,6.61,8.68,10.18,11.32,10.18a1.91,1.91,0,0,0,1-.23c1-.59,1.5-2.48,1.25-5a27.27,27.27,0,0,0-3.72-10.58c-3.82-6.61-8.68-10.18-11.31-10.18h0m0-2c3.79,0,9.16,4.45,13,11.18,4.63,8,5.41,16.24,1.74,18.35a3.9,3.9,0,0,1-2,.5c-3.79,0-9.16-4.45-13-11.18-4.63-8-5.41-16.24-1.74-18.35a3.9,3.9,0,0,1,2-.5Z"/><rect class="cls-1" x="362.09" y="2.34" width="42.39" height="30.04"/><path class="cls-2" d="M387.38,31.38A2.92,2.92,0,0,1,385.9,31c-2.79-1.61-2.61-8.82,2.1-17,3.57-6.19,8.7-10.68,12.18-10.68a2.92,2.92,0,0,1,1.48.37c2.79,1.61,2.61,8.82-2.1,17C396,26.89,390.86,31.38,387.38,31.38Z"/><path class="cls-3" d="M400.19,4.34c-2.63,0-7.5,3.57-11.32,10.18a27.27,27.27,0,0,0-3.72,10.58c-.24,2.57.23,4.45,1.25,5a1.91,1.91,0,0,0,1,.23c2.63,0,7.5-3.57,11.32-10.18a27.27,27.27,0,0,0,3.72-10.58c.24-2.57-.23-4.45-1.25-5a1.91,1.91,0,0,0-1-.23h0m0-2a3.9,3.9,0,0,1,2,.5c3.67,2.12,2.89,10.34-1.74,18.35-3.89,6.73-9.25,11.18-13,11.18a3.9,3.9,0,0,1-2-.5c-3.67-2.12-2.89-10.34,1.74-18.35,3.89-6.73,9.25-11.18,13-11.18Z"/><path class="cls-2" d="M379.19,31.38c-3.48,0-8.61-4.49-12.18-10.68-4.71-8.17-4.89-15.38-2.1-17a2.92,2.92,0,0,1,1.48-.37c3.48,0,8.61,4.49,12.18,10.68,4.72,8.17,4.89,15.38,2.1,17A2.92,2.92,0,0,1,379.19,31.38Z"/><path class="cls-3" d="M366.38,4.34a1.91,1.91,0,0,0-1,.23c-1,.59-1.5,2.48-1.25,5a27.27,27.27,0,0,0,3.72,10.58c3.82,6.61,8.68,10.18,11.32,10.18a1.91,1.91,0,0,0,1-.23c1-.59,1.5-2.48,1.25-5a27.27,27.27,0,0,0-3.72-10.58C373.88,7.91,369,4.34,366.38,4.34h0m0-2c3.79,0,9.16,4.45,13,11.18,4.63,8,5.41,16.24,1.74,18.35a3.9,3.9,0,0,1-2,.5c-3.79,0-9.16-4.45-13-11.18-4.63-8-5.41-16.24-1.74-18.35a3.9,3.9,0,0,1,2-.5Z"/><rect class="cls-1" x="319.69" y="2.34" width="42.39" height="30.04"/><path class="cls-2" d="M345,31.38a2.92,2.92,0,0,1-1.48-.37c-2.79-1.61-2.61-8.82,2.1-17,3.57-6.19,8.7-10.68,12.18-10.68a2.92,2.92,0,0,1,1.48.37c2.79,1.61,2.61,8.82-2.1,17C353.59,26.89,348.47,31.38,345,31.38Z"/><path class="cls-3" d="M357.79,4.34c-2.63,0-7.5,3.57-11.32,10.18a27.27,27.27,0,0,0-3.72,10.58c-.24,2.57.23,4.45,1.25,5a1.91,1.91,0,0,0,1,.23c2.63,0,7.5-3.57,11.32-10.18A27.27,27.27,0,0,0,360,9.62c.24-2.57-.23-4.45-1.25-5a1.91,1.91,0,0,0-1-.23h0m0-2a3.9,3.9,0,0,1,2,.5C363.44,5,362.66,13.18,358,21.19c-3.89,6.73-9.25,11.18-13,11.18a3.9,3.9,0,0,1-2-.5c-3.67-2.12-2.89-10.34,1.74-18.35,3.89-6.73,9.25-11.18,13-11.18Z"/><path class="cls-2" d="M336.79,31.38c-3.48,0-8.61-4.49-12.18-10.68-4.71-8.17-4.89-15.38-2.1-17A2.92,2.92,0,0,1,324,3.34c3.48,0,8.61,4.49,12.18,10.68,4.72,8.17,4.89,15.38,2.1,17A2.92,2.92,0,0,1,336.79,31.38Z"/><path class="cls-3" d="M324,4.34a1.91,1.91,0,0,0-1,.23c-1,.59-1.5,2.48-1.25,5a27.27,27.27,0,0,0,3.72,10.58c3.82,6.61,8.68,10.18,11.32,10.18a1.91,1.91,0,0,0,1-.23c1-.59,1.5-2.48,1.25-5a27.27,27.27,0,0,0-3.72-10.58C331.48,7.91,326.62,4.34,324,4.34h0m0-2c3.79,0,9.16,4.45,13,11.18,4.63,8,5.41,16.24,1.74,18.35a3.9,3.9,0,0,1-2,.5c-3.79,0-9.16-4.45-13-11.18-4.63-8-5.41-16.24-1.74-18.35a3.9,3.9,0,0,1,2-.5Z"/><rect class="cls-1" x="277.3" y="2.34" width="42.39" height="30.04"/><path class="cls-2" d="M302.59,31.38a2.92,2.92,0,0,1-1.48-.37c-2.79-1.61-2.61-8.82,2.1-17,3.57-6.19,8.7-10.68,12.18-10.68a2.92,2.92,0,0,1,1.48.37c2.79,1.61,2.61,8.82-2.1,17C311.2,26.89,306.08,31.38,302.59,31.38Z"/><path class="cls-3" d="M315.4,4.34c-2.63,0-7.5,3.57-11.32,10.18a27.27,27.27,0,0,0-3.72,10.58c-.24,2.57.23,4.45,1.25,5a1.91,1.91,0,0,0,1,.23c2.63,0,7.5-3.57,11.32-10.18a27.27,27.27,0,0,0,3.72-10.58c.24-2.57-.23-4.45-1.25-5a1.91,1.91,0,0,0-1-.23h0m0-2a3.9,3.9,0,0,1,2,.5C321,5,320.27,13.18,315.64,21.19c-3.89,6.73-9.25,11.18-13,11.18a3.9,3.9,0,0,1-2-.5c-3.67-2.12-2.89-10.34,1.74-18.35,3.89-6.73,9.25-11.18,13-11.18Z"/><path class="cls-2" d="M294.4,31.38c-3.48,0-8.61-4.49-12.18-10.68-4.71-8.17-4.89-15.38-2.1-17a2.92,2.92,0,0,1,1.48-.37c3.48,0,8.61,4.49,12.18,10.68,4.72,8.17,4.89,15.38,2.1,17A2.92,2.92,0,0,1,294.4,31.38Z"/><path class="cls-3" d="M281.59,4.34a1.91,1.91,0,0,0-1,.23c-1,.59-1.5,2.48-1.25,5a27.27,27.27,0,0,0,3.72,10.58c3.82,6.61,8.68,10.18,11.32,10.18a1.91,1.91,0,0,0,1-.23c1-.59,1.5-2.48,1.25-5a27.27,27.27,0,0,0-3.72-10.58c-3.82-6.61-8.68-10.18-11.31-10.18h0m0-2c3.79,0,9.16,4.45,13,11.18,4.63,8,5.41,16.24,1.74,18.35a3.9,3.9,0,0,1-2,.5c-3.79,0-9.16-4.45-13-11.18-4.63-8-5.41-16.24-1.74-18.35a3.9,3.9,0,0,1,2-.5Z"/><rect class="cls-1" x="234.91" y="2.34" width="42.39" height="30.04"/><path class="cls-2" d="M260.2,31.38a2.92,2.92,0,0,1-1.48-.37c-2.79-1.61-2.61-8.82,2.1-17C264.4,7.83,269.52,3.34,273,3.34a2.92,2.92,0,0,1,1.48.37c2.79,1.61,2.61,8.82-2.1,17C268.81,26.89,263.68,31.38,260.2,31.38Z"/><path class="cls-3" d="M273,4.34c-2.63,0-7.5,3.57-11.32,10.18A27.27,27.27,0,0,0,258,25.1c-.24,2.57.23,4.45,1.25,5a1.91,1.91,0,0,0,1,.23c2.63,0,7.5-3.57,11.32-10.18a27.27,27.27,0,0,0,3.72-10.58c.24-2.57-.23-4.45-1.25-5a1.91,1.91,0,0,0-1-.23h0m0-2a3.9,3.9,0,0,1,2,.5c3.67,2.12,2.89,10.34-1.74,18.35-3.89,6.73-9.25,11.18-13,11.18a3.9,3.9,0,0,1-2-.5c-3.67-2.12-2.89-10.34,1.74-18.35,3.89-6.73,9.25-11.18,13-11.18Z"/><path class="cls-2" d="M252,31.38c-3.48,0-8.61-4.49-12.18-10.68-4.71-8.17-4.89-15.38-2.1-17a2.92,2.92,0,0,1,1.48-.37c3.48,0,8.61,4.49,12.18,10.68,4.72,8.17,4.89,15.38,2.1,17A2.92,2.92,0,0,1,252,31.38Z"/><path class="cls-3" d="M239.2,4.34a1.91,1.91,0,0,0-1,.23c-1,.59-1.5,2.48-1.25,5a27.27,27.27,0,0,0,3.72,10.58c3.82,6.61,8.68,10.18,11.32,10.18a1.91,1.91,0,0,0,1-.23c1-.59,1.5-2.48,1.25-5a27.27,27.27,0,0,0-3.72-10.58C246.7,7.91,241.84,4.34,239.2,4.34h0m0-2c3.79,0,9.16,4.45,13,11.18,4.63,8,5.41,16.24,1.74,18.35a3.9,3.9,0,0,1-2,.5c-3.79,0-9.16-4.45-13-11.18-4.63-8-5.41-16.24-1.74-18.35a3.9,3.9,0,0,1,2-.5Z"/><rect class="cls-1" x="192.51" y="2.34" width="42.39" height="30.04"/><path class="cls-2" d="M217.81,31.38a2.92,2.92,0,0,1-1.48-.37c-2.79-1.61-2.61-8.82,2.1-17,3.57-6.19,8.7-10.68,12.18-10.68a2.92,2.92,0,0,1,1.48.37c2.79,1.61,2.61,8.82-2.1,17C226.41,26.89,221.29,31.38,217.81,31.38Z"/><path class="cls-3" d="M230.61,4.34c-2.63,0-7.5,3.57-11.32,10.18a27.27,27.27,0,0,0-3.72,10.58c-.24,2.57.23,4.45,1.25,5a1.91,1.91,0,0,0,1,.23c2.63,0,7.5-3.57,11.32-10.18a27.27,27.27,0,0,0,3.72-10.58c.24-2.57-.23-4.45-1.25-5a1.91,1.91,0,0,0-1-.23h0m0-2a3.9,3.9,0,0,1,2,.5c3.67,2.12,2.89,10.34-1.74,18.35-3.89,6.73-9.25,11.18-13,11.18a3.9,3.9,0,0,1-2-.5c-3.67-2.12-2.89-10.34,1.74-18.35,3.89-6.73,9.25-11.18,13-11.18Z"/><path class="cls-2" d="M209.61,31.38c-3.48,0-8.61-4.49-12.18-10.68-4.71-8.17-4.89-15.38-2.1-17a2.92,2.92,0,0,1,1.48-.37c3.48,0,8.61,4.49,12.18,10.68,4.72,8.17,4.89,15.38,2.1,17A2.92,2.92,0,0,1,209.61,31.38Z"/><path class="cls-3" d="M196.81,4.34a1.91,1.91,0,0,0-1,.23c-1,.59-1.5,2.48-1.25,5a27.27,27.27,0,0,0,3.72,10.58c3.82,6.61,8.68,10.18,11.32,10.18a1.91,1.91,0,0,0,1-.23c1-.59,1.5-2.48,1.25-5a27.27,27.27,0,0,0-3.72-10.58c-3.82-6.61-8.68-10.18-11.31-10.18h0m0-2c3.79,0,9.16,4.45,13,11.18,4.63,8,5.41,16.24,1.74,18.35a3.9,3.9,0,0,1-2,.5c-3.79,0-9.16-4.45-13-11.18-4.63-8-5.41-16.24-1.74-18.35a3.9,3.9,0,0,1,2-.5Z"/><rect class="cls-1" x="150.12" y="2.34" width="42.39" height="30.04"/><path class="cls-2" d="M175.41,31.38a2.92,2.92,0,0,1-1.48-.37c-2.79-1.61-2.61-8.82,2.1-17,3.57-6.19,8.7-10.68,12.18-10.68a2.92,2.92,0,0,1,1.48.37c2.79,1.61,2.61,8.82-2.1,17C184,26.89,178.9,31.38,175.41,31.38Z"/><path class="cls-3" d="M188.22,4.34c-2.63,0-7.5,3.57-11.32,10.18a27.27,27.27,0,0,0-3.72,10.58c-.24,2.57.23,4.45,1.25,5a1.91,1.91,0,0,0,1,.23c2.63,0,7.5-3.57,11.32-10.18a27.27,27.27,0,0,0,3.72-10.58c.24-2.57-.23-4.45-1.25-5a1.91,1.91,0,0,0-1-.23h0m0-2a3.9,3.9,0,0,1,2,.5c3.67,2.12,2.89,10.34-1.74,18.35-3.89,6.73-9.25,11.18-13,11.18a3.9,3.9,0,0,1-2-.5c-3.67-2.12-2.89-10.34,1.74-18.35,3.89-6.73,9.25-11.18,13-11.18Z"/><path class="cls-2" d="M167.22,31.38c-3.48,0-8.61-4.49-12.18-10.68-4.71-8.17-4.89-15.38-2.1-17a2.92,2.92,0,0,1,1.48-.37c3.48,0,8.61,4.49,12.18,10.68,4.72,8.17,4.89,15.38,2.1,17A2.92,2.92,0,0,1,167.22,31.38Z"/><path class="cls-3" d="M154.41,4.34a1.91,1.91,0,0,0-1,.23c-1,.59-1.5,2.48-1.25,5a27.27,27.27,0,0,0,3.72,10.58c3.82,6.61,8.68,10.18,11.32,10.18a1.91,1.91,0,0,0,1-.23c1-.59,1.5-2.48,1.25-5a27.27,27.27,0,0,0-3.72-10.58C161.91,7.91,157,4.34,154.41,4.34h0m0-2c3.79,0,9.16,4.45,13,11.18,4.63,8,5.41,16.24,1.74,18.35a3.9,3.9,0,0,1-2,.5c-3.79,0-9.16-4.45-13-11.18-4.63-8-5.41-16.24-1.74-18.35a3.9,3.9,0,0,1,2-.5Z"/><rect class="cls-1" x="107.72" y="2.34" width="42.39" height="30.04"/><path class="cls-2" d="M133,31.38a2.92,2.92,0,0,1-1.48-.37c-2.79-1.61-2.61-8.82,2.1-17,3.57-6.19,8.7-10.68,12.18-10.68a2.92,2.92,0,0,1,1.48.37c2.79,1.61,2.61,8.82-2.1,17C141.63,26.89,136.5,31.38,133,31.38Z"/><path class="cls-3" d="M145.82,4.34c-2.63,0-7.5,3.57-11.32,10.18a27.27,27.27,0,0,0-3.72,10.58c-.24,2.57.23,4.45,1.25,5a1.91,1.91,0,0,0,1,.23c2.63,0,7.5-3.57,11.32-10.18a27.27,27.27,0,0,0,3.72-10.58c.24-2.57-.23-4.45-1.25-5a1.91,1.91,0,0,0-1-.23h0m0-2a3.9,3.9,0,0,1,2,.5c3.67,2.12,2.89,10.34-1.74,18.35-3.89,6.73-9.25,11.18-13,11.18a3.9,3.9,0,0,1-2-.5c-3.67-2.12-2.89-10.34,1.74-18.35,3.89-6.73,9.25-11.18,13-11.18Z"/><path class="cls-2" d="M124.82,31.38c-3.48,0-8.61-4.49-12.18-10.68-4.71-8.17-4.89-15.38-2.1-17A2.92,2.92,0,0,1,112,3.34c3.48,0,8.61,4.49,12.18,10.68,4.72,8.17,4.89,15.38,2.1,17A2.92,2.92,0,0,1,124.82,31.38Z"/><path class="cls-3" d="M112,4.34a1.91,1.91,0,0,0-1,.23c-1,.59-1.5,2.48-1.25,5a27.27,27.27,0,0,0,3.72,10.58c3.82,6.61,8.68,10.18,11.32,10.18a1.91,1.91,0,0,0,1-.23c1-.59,1.5-2.48,1.25-5a27.27,27.27,0,0,0-3.72-10.58C119.51,7.91,114.65,4.34,112,4.34h0m0-2c3.79,0,9.16,4.45,13,11.18,4.63,8,5.41,16.24,1.74,18.35a3.9,3.9,0,0,1-2,.5c-3.79,0-9.16-4.45-13-11.18-4.63-8-5.41-16.24-1.74-18.35a3.9,3.9,0,0,1,2-.5Z"/><rect class="cls-1" x="65.33" y="2.34" width="42.39" height="30.04"/><path class="cls-2" d="M90.62,31.38A2.92,2.92,0,0,1,89.15,31c-2.79-1.61-2.61-8.82,2.1-17,3.57-6.19,8.7-10.68,12.18-10.68a2.92,2.92,0,0,1,1.48.37c2.79,1.61,2.61,8.82-2.1,17C99.23,26.89,94.11,31.38,90.62,31.38Z"/><path class="cls-3" d="M103.43,4.34c-2.63,0-7.5,3.57-11.32,10.18A27.27,27.27,0,0,0,88.39,25.1c-.24,2.57.23,4.45,1.25,5a1.91,1.91,0,0,0,1,.23c2.63,0,7.5-3.57,11.32-10.18a27.27,27.27,0,0,0,3.72-10.58c.24-2.57-.23-4.45-1.25-5a1.91,1.91,0,0,0-1-.23h0m0-2a3.9,3.9,0,0,1,2,.5c3.67,2.12,2.89,10.34-1.74,18.35-3.89,6.73-9.25,11.18-13,11.18a3.9,3.9,0,0,1-2-.5C85,29.76,85.75,21.54,90.38,13.52c3.89-6.73,9.25-11.18,13-11.18Z"/><path class="cls-2" d="M82.43,31.38c-3.48,0-8.61-4.49-12.18-10.68-4.71-8.17-4.89-15.38-2.1-17a2.92,2.92,0,0,1,1.48-.37c3.48,0,8.61,4.49,12.18,10.68,4.72,8.17,4.89,15.38,2.1,17A2.92,2.92,0,0,1,82.43,31.38Z"/><path class="cls-3" d="M69.63,4.34a1.91,1.91,0,0,0-1,.23c-1,.59-1.5,2.48-1.25,5a27.27,27.27,0,0,0,3.72,10.58c3.82,6.61,8.68,10.18,11.32,10.18a1.91,1.91,0,0,0,1-.23c1-.59,1.5-2.48,1.25-5a27.27,27.27,0,0,0-3.72-10.58C77.12,7.91,72.26,4.34,69.63,4.34h0m0-2c3.79,0,9.16,4.45,13,11.18,4.63,8,5.41,16.24,1.74,18.35a3.9,3.9,0,0,1-2,.5c-3.79,0-9.16-4.45-13-11.18C64.75,13.18,64,5,67.65,2.84a3.9,3.9,0,0,1,2-.5Z"/><rect class="cls-1" x="23.58" y="7.02" width="42.39" height="30.04" transform="translate(-5.04 18.99) rotate(-22.7)"/><path class="cls-2" d="M54,33.39a2.92,2.92,0,0,1-1.51.23c-3.2-.41-5.81-7.13-4.62-16.48C48.76,10,51.75,3.92,55,2.58a2.92,2.92,0,0,1,1.51-.23c3.2.41,5.81,7.13,4.62,16.48C60.18,25.92,57.18,32,54,33.39Z"/><path class="cls-3" d="M55.35,3.5c-2.43,1-5.54,6.19-6.51,13.76a27.27,27.27,0,0,0,.65,11.19c.77,2.46,1.93,4,3.1,4.17a1.91,1.91,0,0,0,1-.16c2.43-1,5.54-6.19,6.51-13.76a27.27,27.27,0,0,0-.65-11.19c-.77-2.46-1.93-4-3.1-4.17a1.91,1.91,0,0,0-1,.16h0m-.77-1.85a3.9,3.9,0,0,1,2-.3c4.2.54,6.66,8.42,5.48,17.6-1,7.71-4.22,13.89-7.72,15.35a3.9,3.9,0,0,1-2,.3c-4.2-.54-6.66-8.42-5.48-17.6,1-7.71,4.22-13.89,7.72-15.35Z"/><path class="cls-2" d="M46.41,36.55C43.2,37.9,36.74,35.73,31,31.4c-7.5-5.71-10.45-12.3-8.5-14.86a2.92,2.92,0,0,1,1.22-.91c3.21-1.34,9.67.82,15.36,5.16,7.5,5.71,10.45,12.3,8.5,14.86A2.92,2.92,0,0,1,46.41,36.55Z"/><path class="cls-3" d="M24.16,16.55a1.91,1.91,0,0,0-.81.59c-.72.94-.42,2.86.79,5.14a27.27,27.27,0,0,0,7.52,8.32c6.08,4.63,11.94,6,14.37,5a1.91,1.91,0,0,0,.81-.59c.72-.94.42-2.86-.79-5.14a27.27,27.27,0,0,0-7.52-8.32c-6.08-4.63-11.94-6-14.37-5h0m-.77-1.84c3.5-1.46,10.17.57,16.35,5.28C47.11,25.6,51,32.88,48.43,36.25a3.9,3.9,0,0,1-1.63,1.23c-3.5,1.46-10.17-.57-16.35-5.28-7.37-5.61-11.25-12.89-8.69-16.26a3.9,3.9,0,0,1,1.63-1.23Z"/><rect class="cls-1" x="-2.28" y="38.59" width="42.39" height="30.04" transform="translate(-37.37 61.54) rotate(-78.59)"/><path class="cls-2" d="M33.47,52.36a2.92,2.92,0,0,1-.65,1.38c-2.13,2.42-9.16.81-16.24-5.42-5.36-4.73-8.75-10.64-8.06-14.05a2.92,2.92,0,0,1,.65-1.38c2.13-2.42,9.16-.81,16.24,5.42C30.77,43,34.16,48.95,33.47,52.36Z"/><path class="cls-3" d="M9.5,34.46c-.52,2.58,2,8.05,7.74,13.11a27.27,27.27,0,0,0,9.63,5.74c2.47.75,4.41.66,5.19-.23a1.91,1.91,0,0,0,.42-.91c.52-2.58-2-8.05-7.74-13.11a27.27,27.27,0,0,0-9.63-5.74c-2.47-.75-4.41-.66-5.19.23a1.91,1.91,0,0,0-.42.91h0m-2-.4a3.9,3.9,0,0,1,.88-1.84c2.8-3.18,10.7-.79,17.65,5.34,5.83,5.14,9.13,11.28,8.38,15a3.9,3.9,0,0,1-.88,1.84c-2.8,3.18-10.7.79-17.65-5.34-5.83-5.14-9.13-11.28-8.38-15Z"/><path class="cls-2" d="M31.85,60.4c-.69,3.41-6.11,7.55-12.88,9.83-8.94,3-16,1.75-17.07-1.3a2.92,2.92,0,0,1-.07-1.52c.69-3.42,6.11-7.55,12.88-9.83,8.94-3,16-1.75,17.07,1.3A2.92,2.92,0,0,1,31.85,60.4Z"/><path class="cls-3" d="M2.81,67.6a1.91,1.91,0,0,0,0,1c.38,1.12,2.13,2,4.7,2.23a27.27,27.27,0,0,0,11.11-1.55c7.24-2.43,11.7-6.49,12.22-9.08a1.91,1.91,0,0,0,0-1c-.38-1.12-2.13-2-4.7-2.23A27.27,27.27,0,0,0,15,58.52C7.79,61,3.33,65,2.81,67.6h0m-2-.39C1.6,63.48,7,59.1,14.39,56.63c8.78-3,17-2.09,18.34,1.93a3.9,3.9,0,0,1,.1,2c-.75,3.72-6.18,8.1-13.54,10.58-8.78,3-17,2.09-18.34-1.93a3.9,3.9,0,0,1-.1-2Z"/><rect class="cls-1" x="1.42" y="74.56" width="30.04" height="42.39"/><path class="cls-2" d="M30.46,91.65a2.92,2.92,0,0,1-.37,1.48c-1.61,2.79-8.82,2.61-17-2.1C6.92,87.46,2.42,82.33,2.42,78.85a2.92,2.92,0,0,1,.37-1.48c1.61-2.79,8.82-2.61,17,2.1C26,83,30.46,88.17,30.46,91.65Z"/><path class="cls-3" d="M3.42,78.85c0,2.63,3.57,7.5,10.18,11.32a27.27,27.27,0,0,0,10.58,3.72c2.57.24,4.45-.23,5-1.25a1.91,1.91,0,0,0,.23-1c0-2.63-3.57-7.5-10.18-11.32A27.27,27.27,0,0,0,8.7,76.62c-2.57-.24-4.45.23-5,1.25a1.91,1.91,0,0,0-.23,1h0m-2,0a3.9,3.9,0,0,1,.5-2C4,73.2,12.26,74,20.28,78.61c6.73,3.89,11.18,9.25,11.18,13a3.9,3.9,0,0,1-.5,2c-2.12,3.67-10.34,2.89-18.35-1.74C5.88,88,1.42,82.64,1.42,78.85Z"/><path class="cls-2" d="M30.46,99.85c0,3.48-4.49,8.61-10.68,12.18-8.17,4.71-15.38,4.89-17,2.1a2.92,2.92,0,0,1-.37-1.48c0-3.48,4.49-8.61,10.68-12.18,8.17-4.72,15.38-4.89,17-2.1A2.92,2.92,0,0,1,30.46,99.85Z"/><path class="cls-3" d="M3.42,112.65a1.91,1.91,0,0,0,.23,1c.59,1,2.48,1.5,5,1.25a27.27,27.27,0,0,0,10.58-3.72c6.61-3.82,10.18-8.68,10.18-11.32a1.91,1.91,0,0,0-.23-1c-.59-1-2.48-1.5-5-1.25a27.27,27.27,0,0,0-10.58,3.72C7,105.16,3.42,110,3.42,112.65h0m-2,0c0-3.79,4.45-9.16,11.18-13C20.63,95,28.84,94.2,31,97.87a3.9,3.9,0,0,1,.5,2c0,3.79-4.45,9.16-11.18,13-8,4.63-16.24,5.41-18.35,1.74a3.9,3.9,0,0,1-.5-2Z"/><rect class="cls-1" x="1.42" y="116.95" width="30.04" height="42.39"/><path class="cls-2" d="M30.46,134a2.92,2.92,0,0,1-.37,1.48c-1.61,2.79-8.82,2.61-17-2.1-6.19-3.57-10.68-8.7-10.68-12.18a2.92,2.92,0,0,1,.37-1.48c1.61-2.79,8.82-2.61,17,2.1C26,125.44,30.46,130.56,30.46,134Z"/><path class="cls-3" d="M3.42,121.24c0,2.63,3.57,7.5,10.18,11.32a27.27,27.27,0,0,0,10.58,3.72c2.57.24,4.45-.23,5-1.25a1.91,1.91,0,0,0,.23-1c0-2.63-3.57-7.5-10.18-11.32A27.27,27.27,0,0,0,8.7,119c-2.57-.24-4.45.23-5,1.25a1.91,1.91,0,0,0-.23,1h0m-2,0a3.9,3.9,0,0,1,.5-2C4,115.59,12.26,116.37,20.28,121c6.73,3.89,11.18,9.25,11.18,13a3.9,3.9,0,0,1-.5,2c-2.12,3.67-10.34,2.89-18.35-1.74-6.73-3.89-11.18-9.25-11.18-13Z"/><path class="cls-2" d="M30.46,142.24c0,3.48-4.49,8.61-10.68,12.18-8.17,4.71-15.38,4.89-17,2.1A2.92,2.92,0,0,1,2.42,155c0-3.48,4.49-8.61,10.68-12.18,8.17-4.72,15.38-4.89,17-2.1A2.92,2.92,0,0,1,30.46,142.24Z"/><path class="cls-3" d="M3.42,155a1.91,1.91,0,0,0,.23,1c.59,1,2.48,1.5,5,1.25a27.27,27.27,0,0,0,10.58-3.72c6.61-3.82,10.18-8.68,10.18-11.32a1.91,1.91,0,0,0-.23-1c-.59-1-2.48-1.5-5-1.25a27.27,27.27,0,0,0-10.58,3.72C7,147.55,3.42,152.41,3.42,155h0m-2,0c0-3.79,4.45-9.16,11.18-13,8-4.63,16.24-5.41,18.35-1.74a3.9,3.9,0,0,1,.5,2c0,3.79-4.45,9.16-11.18,13C12.26,159.92,4,160.7,1.93,157a3.9,3.9,0,0,1-.5-2Z"/><rect class="cls-1" x="1.42" y="159.34" width="30.04" height="42.39"/><path class="cls-2" d="M30.46,176.44a2.92,2.92,0,0,1-.37,1.48c-1.61,2.79-8.82,2.61-17-2.1-6.19-3.57-10.68-8.7-10.68-12.18a2.92,2.92,0,0,1,.37-1.48c1.61-2.79,8.82-2.61,17,2.1C26,167.83,30.46,173,30.46,176.44Z"/><path class="cls-3" d="M3.42,163.64c0,2.63,3.57,7.5,10.18,11.32a27.27,27.27,0,0,0,10.58,3.72c2.57.24,4.45-.23,5-1.25a1.91,1.91,0,0,0,.23-1c0-2.63-3.57-7.5-10.18-11.32A27.27,27.27,0,0,0,8.7,161.4c-2.57-.24-4.45.23-5,1.25a1.91,1.91,0,0,0-.23,1h0m-2,0a3.9,3.9,0,0,1,.5-2C4,158,12.26,158.77,20.28,163.39c6.73,3.89,11.18,9.25,11.18,13a3.9,3.9,0,0,1-.5,2c-2.12,3.67-10.34,2.89-18.35-1.74-6.73-3.89-11.18-9.25-11.18-13Z"/><path class="cls-2" d="M30.46,184.64c0,3.48-4.49,8.61-10.68,12.18-8.17,4.71-15.38,4.89-17,2.1a2.92,2.92,0,0,1-.37-1.48c0-3.48,4.49-8.61,10.68-12.18,8.17-4.72,15.38-4.89,17-2.1A2.92,2.92,0,0,1,30.46,184.64Z"/><path class="cls-3" d="M3.42,197.44a1.91,1.91,0,0,0,.23,1c.59,1,2.48,1.5,5,1.25A27.27,27.27,0,0,0,19.28,196c6.61-3.82,10.18-8.68,10.18-11.32a1.91,1.91,0,0,0-.23-1c-.59-1-2.48-1.5-5-1.25a27.27,27.27,0,0,0-10.58,3.72C7,189.95,3.42,194.81,3.42,197.44h0m-2,0c0-3.79,4.45-9.16,11.18-13,8-4.63,16.24-5.41,18.35-1.74a3.9,3.9,0,0,1,.5,2c0,3.79-4.45,9.16-11.18,13-8,4.63-16.24,5.41-18.35,1.74a3.9,3.9,0,0,1-.5-2Z"/><rect class="cls-1" x="1.42" y="201.74" width="30.04" height="42.39"/><path class="cls-2" d="M30.46,218.84a2.92,2.92,0,0,1-.37,1.48c-1.61,2.79-8.82,2.61-17-2.1C6.92,214.64,2.42,209.51,2.42,206a2.92,2.92,0,0,1,.37-1.48c1.61-2.79,8.82-2.61,17,2.1C26,210.23,30.46,215.35,30.46,218.84Z"/><path class="cls-3" d="M3.42,206c0,2.63,3.57,7.5,10.18,11.32a27.27,27.27,0,0,0,10.58,3.72c2.57.24,4.45-.23,5-1.25a1.91,1.91,0,0,0,.23-1c0-2.63-3.57-7.5-10.18-11.32A27.27,27.27,0,0,0,8.7,203.8c-2.57-.24-4.45.23-5,1.25a1.91,1.91,0,0,0-.23,1h0m-2,0a3.9,3.9,0,0,1,.5-2c2.12-3.67,10.34-2.89,18.35,1.74,6.73,3.89,11.18,9.25,11.18,13a3.9,3.9,0,0,1-.5,2c-2.12,3.67-10.34,2.89-18.35-1.74-6.73-3.89-11.18-9.25-11.18-13Z"/><path class="cls-2" d="M30.46,227c0,3.48-4.49,8.61-10.68,12.18-8.17,4.71-15.38,4.89-17,2.1a2.92,2.92,0,0,1-.37-1.48c0-3.48,4.49-8.61,10.68-12.18,8.17-4.72,15.38-4.89,17-2.1A2.92,2.92,0,0,1,30.46,227Z"/><path class="cls-3" d="M3.42,239.83a1.91,1.91,0,0,0,.23,1c.59,1,2.48,1.5,5,1.25a27.27,27.27,0,0,0,10.58-3.72c6.61-3.82,10.18-8.68,10.18-11.32a1.91,1.91,0,0,0-.23-1c-.59-1-2.48-1.5-5-1.25a27.27,27.27,0,0,0-10.58,3.72C7,232.34,3.42,237.2,3.42,239.83h0m-2,0c0-3.79,4.45-9.16,11.18-13,8-4.63,16.24-5.41,18.35-1.74a3.9,3.9,0,0,1,.5,2c0,3.79-4.45,9.16-11.18,13-8,4.63-16.24,5.41-18.35,1.74a3.9,3.9,0,0,1-.5-2Z"/><rect class="cls-1" x="1.42" y="244.13" width="30.04" height="42.39"/><path class="cls-2" d="M30.46,261.23a2.92,2.92,0,0,1-.37,1.48c-1.61,2.79-8.82,2.61-17-2.1C6.92,257,2.42,251.91,2.42,248.42a2.92,2.92,0,0,1,.37-1.48c1.61-2.79,8.82-2.61,17,2.1C26,252.62,30.46,257.75,30.46,261.23Z"/><path class="cls-3" d="M3.42,248.42c0,2.63,3.57,7.5,10.18,11.32a27.27,27.27,0,0,0,10.58,3.72c2.57.24,4.45-.23,5-1.25a1.91,1.91,0,0,0,.23-1c0-2.63-3.57-7.5-10.18-11.32A27.27,27.27,0,0,0,8.7,246.19c-2.57-.24-4.45.23-5,1.25a1.91,1.91,0,0,0-.23,1h0m-2,0a3.9,3.9,0,0,1,.5-2c2.12-3.67,10.34-2.89,18.35,1.74,6.73,3.89,11.18,9.25,11.18,13a3.9,3.9,0,0,1-.5,2c-2.12,3.67-10.34,2.89-18.35-1.74-6.73-3.89-11.18-9.25-11.18-13Z"/><path class="cls-2" d="M30.46,269.42c0,3.48-4.49,8.61-10.68,12.18-8.17,4.71-15.38,4.89-17,2.1a2.92,2.92,0,0,1-.37-1.48c0-3.48,4.49-8.61,10.68-12.18,8.17-4.72,15.38-4.89,17-2.1A2.92,2.92,0,0,1,30.46,269.42Z"/><path class="cls-3" d="M3.42,282.23a1.91,1.91,0,0,0,.23,1c.59,1,2.48,1.5,5,1.25a27.27,27.27,0,0,0,10.58-3.72c6.61-3.82,10.18-8.68,10.18-11.32a1.91,1.91,0,0,0-.23-1c-.59-1-2.48-1.5-5-1.25a27.27,27.27,0,0,0-10.58,3.72C7,274.73,3.42,279.59,3.42,282.23h0m-2,0c0-3.79,4.45-9.16,11.18-13,8-4.63,16.24-5.41,18.35-1.74a3.9,3.9,0,0,1,.5,2c0,3.79-4.45,9.16-11.18,13-8,4.63-16.24,5.41-18.35,1.74a3.9,3.9,0,0,1-.5-2Z"/><rect class="cls-1" x="1.42" y="286.52" width="30.04" height="42.39"/><path class="cls-2" d="M30.46,303.62a2.92,2.92,0,0,1-.37,1.48c-1.61,2.79-8.82,2.61-17-2.1-6.19-3.57-10.68-8.7-10.68-12.18a2.92,2.92,0,0,1,.37-1.48c1.61-2.79,8.82-2.61,17,2.1C26,295,30.46,300.14,30.46,303.62Z"/><path class="cls-3" d="M3.42,290.82c0,2.63,3.57,7.5,10.18,11.32a27.27,27.27,0,0,0,10.58,3.72c2.57.24,4.45-.23,5-1.25a1.91,1.91,0,0,0,.23-1c0-2.63-3.57-7.5-10.18-11.32A27.27,27.27,0,0,0,8.7,288.59c-2.57-.24-4.45.23-5,1.25a1.91,1.91,0,0,0-.23,1h0m-2,0a3.9,3.9,0,0,1,.5-2c2.12-3.67,10.34-2.89,18.35,1.74,6.73,3.89,11.18,9.25,11.18,13a3.9,3.9,0,0,1-.5,2c-2.12,3.67-10.34,2.89-18.35-1.74-6.73-3.89-11.18-9.25-11.18-13Z"/><path class="cls-2" d="M30.46,311.82c0,3.48-4.49,8.61-10.68,12.18-8.17,4.71-15.38,4.89-17,2.1a2.92,2.92,0,0,1-.37-1.48c0-3.48,4.49-8.61,10.68-12.18,8.17-4.72,15.38-4.89,17-2.1A2.92,2.92,0,0,1,30.46,311.82Z"/><path class="cls-3" d="M3.42,324.62a1.91,1.91,0,0,0,.23,1c.59,1,2.48,1.5,5,1.25a27.27,27.27,0,0,0,10.58-3.72c6.61-3.82,10.18-8.68,10.18-11.32a1.91,1.91,0,0,0-.23-1c-.59-1-2.48-1.5-5-1.25a27.27,27.27,0,0,0-10.58,3.72C7,317.13,3.42,322,3.42,324.62h0m-2,0c0-3.79,4.45-9.16,11.18-13,8-4.63,16.24-5.41,18.35-1.74a3.9,3.9,0,0,1,.5,2c0,3.79-4.45,9.16-11.18,13-8,4.63-16.24,5.41-18.35,1.74a3.9,3.9,0,0,1-.5-2Z"/><rect class="cls-1" x="1.42" y="328.92" width="30.04" height="42.39"/><path class="cls-2" d="M30.46,346a2.92,2.92,0,0,1-.37,1.48c-1.61,2.79-8.82,2.61-17-2.1-6.19-3.57-10.68-8.7-10.68-12.18a2.92,2.92,0,0,1,.37-1.48c1.61-2.79,8.82-2.61,17,2.1C26,337.41,30.46,342.53,30.46,346Z"/><path class="cls-3" d="M3.42,333.21c0,2.63,3.57,7.5,10.18,11.32a27.27,27.27,0,0,0,10.58,3.72c2.57.24,4.45-.23,5-1.25a1.91,1.91,0,0,0,.23-1c0-2.63-3.57-7.5-10.18-11.32A27.27,27.27,0,0,0,8.7,331c-2.57-.24-4.45.23-5,1.25a1.91,1.91,0,0,0-.23,1h0m-2,0a3.9,3.9,0,0,1,.5-2C4,327.56,12.26,328.34,20.28,333c6.73,3.89,11.18,9.25,11.18,13a3.9,3.9,0,0,1-.5,2c-2.12,3.67-10.34,2.89-18.35-1.74-6.73-3.89-11.18-9.25-11.18-13Z"/><path class="cls-2" d="M30.46,354.21c0,3.48-4.49,8.61-10.68,12.18-8.17,4.71-15.38,4.89-17,2.1A2.92,2.92,0,0,1,2.42,367c0-3.48,4.49-8.61,10.68-12.18,8.17-4.72,15.38-4.89,17-2.1A2.92,2.92,0,0,1,30.46,354.21Z"/><path class="cls-3" d="M3.42,367a1.91,1.91,0,0,0,.23,1c.59,1,2.48,1.5,5,1.25a27.27,27.27,0,0,0,10.58-3.72c6.61-3.82,10.18-8.68,10.18-11.32a1.91,1.91,0,0,0-.23-1c-.59-1-2.48-1.5-5-1.25a27.27,27.27,0,0,0-10.58,3.72C7,359.52,3.42,364.38,3.42,367h0m-2,0c0-3.79,4.45-9.16,11.18-13,8-4.63,16.24-5.41,18.35-1.74a3.9,3.9,0,0,1,.5,2c0,3.79-4.45,9.16-11.18,13-8,4.63-16.24,5.41-18.35,1.74a3.9,3.9,0,0,1-.5-2Z"/><rect class="cls-1" x="1.42" y="371.31" width="30.04" height="42.39"/><path class="cls-2" d="M30.46,388.41a2.92,2.92,0,0,1-.37,1.48c-1.61,2.79-8.82,2.61-17-2.1-6.19-3.57-10.68-8.7-10.68-12.18a2.92,2.92,0,0,1,.37-1.48c1.61-2.79,8.82-2.61,17,2.1C26,379.8,30.46,384.93,30.46,388.41Z"/><path class="cls-3" d="M3.42,375.61c0,2.63,3.57,7.5,10.18,11.32a27.27,27.27,0,0,0,10.58,3.72c2.57.24,4.45-.23,5-1.25a1.91,1.91,0,0,0,.23-1c0-2.63-3.57-7.5-10.18-11.32A27.27,27.27,0,0,0,8.7,373.37c-2.57-.24-4.45.23-5,1.25a1.91,1.91,0,0,0-.23,1h0m-2,0a3.9,3.9,0,0,1,.5-2C4,370,12.26,370.73,20.28,375.36c6.73,3.89,11.18,9.25,11.18,13a3.9,3.9,0,0,1-.5,2c-2.12,3.67-10.34,2.89-18.35-1.74-6.73-3.89-11.18-9.25-11.18-13Z"/><path class="cls-2" d="M30.46,396.61c0,3.48-4.49,8.61-10.68,12.18-8.17,4.71-15.38,4.89-17,2.1a2.92,2.92,0,0,1-.37-1.48c0-3.48,4.49-8.61,10.68-12.18,8.17-4.72,15.38-4.89,17-2.1A2.92,2.92,0,0,1,30.46,396.61Z"/><path class="cls-3" d="M3.42,409.41a1.91,1.91,0,0,0,.23,1c.59,1,2.48,1.5,5,1.25a27.27,27.27,0,0,0,10.58-3.72c6.61-3.82,10.18-8.68,10.18-11.32a1.91,1.91,0,0,0-.23-1c-.59-1-2.48-1.5-5-1.25a27.27,27.27,0,0,0-10.58,3.72C7,401.91,3.42,406.77,3.42,409.41h0m-2,0c0-3.79,4.45-9.16,11.18-13,8-4.63,16.24-5.41,18.35-1.74a3.9,3.9,0,0,1,.5,2c0,3.79-4.45,9.16-11.18,13-8,4.63-16.24,5.41-18.35,1.74a3.9,3.9,0,0,1-.5-2Z"/><rect class="cls-1" x="1.42" y="413.7" width="30.04" height="42.39"/><path class="cls-2" d="M30.46,430.8a2.92,2.92,0,0,1-.37,1.48c-1.61,2.79-8.82,2.61-17-2.1C6.92,426.61,2.42,421.48,2.42,418a2.92,2.92,0,0,1,.37-1.48c1.61-2.79,8.82-2.61,17,2.1C26,422.2,30.46,427.32,30.46,430.8Z"/><path class="cls-3" d="M3.42,418c0,2.63,3.57,7.5,10.18,11.32A27.27,27.27,0,0,0,24.19,433c2.57.24,4.45-.23,5-1.25a1.91,1.91,0,0,0,.23-1c0-2.63-3.57-7.5-10.18-11.32A27.27,27.27,0,0,0,8.7,415.77c-2.57-.24-4.45.23-5,1.25a1.91,1.91,0,0,0-.23,1h0m-2,0a3.9,3.9,0,0,1,.5-2c2.12-3.67,10.34-2.89,18.35,1.74,6.73,3.89,11.18,9.25,11.18,13a3.9,3.9,0,0,1-.5,2c-2.12,3.67-10.34,2.89-18.35-1.74-6.73-3.89-11.18-9.25-11.18-13Z"/><path class="cls-2" d="M30.46,439c0,3.48-4.49,8.61-10.68,12.18-8.17,4.71-15.38,4.89-17,2.1a2.92,2.92,0,0,1-.37-1.48c0-3.48,4.49-8.61,10.68-12.18,8.17-4.72,15.38-4.89,17-2.1A2.92,2.92,0,0,1,30.46,439Z"/><path class="cls-3" d="M3.42,451.8a1.91,1.91,0,0,0,.23,1c.59,1,2.48,1.5,5,1.25a27.27,27.27,0,0,0,10.58-3.72c6.61-3.82,10.18-8.68,10.18-11.32a1.91,1.91,0,0,0-.23-1c-.59-1-2.48-1.5-5-1.25a27.27,27.27,0,0,0-10.58,3.72C7,444.31,3.42,449.17,3.42,451.8h0m-2,0c0-3.79,4.45-9.16,11.18-13,8-4.63,16.24-5.41,18.35-1.74a3.9,3.9,0,0,1,.5,2c0,3.79-4.45,9.16-11.18,13-8,4.63-16.24,5.41-18.35,1.74a3.9,3.9,0,0,1-.5-2Z"/><rect class="cls-1" x="1.42" y="456.1" width="30.04" height="42.39"/><path class="cls-2" d="M30.46,473.2a2.92,2.92,0,0,1-.37,1.48c-1.61,2.79-8.82,2.61-17-2.1C6.92,469,2.42,463.88,2.42,460.39a2.92,2.92,0,0,1,.37-1.48c1.61-2.79,8.82-2.61,17,2.1C26,464.59,30.46,469.71,30.46,473.2Z"/><path class="cls-3" d="M3.42,460.39c0,2.63,3.57,7.5,10.18,11.32a27.27,27.27,0,0,0,10.58,3.72c2.57.24,4.45-.23,5-1.25a1.91,1.91,0,0,0,.23-1c0-2.63-3.57-7.5-10.18-11.32A27.27,27.27,0,0,0,8.7,458.16c-2.57-.24-4.45.23-5,1.25a1.91,1.91,0,0,0-.23,1h0m-2,0a3.9,3.9,0,0,1,.5-2c2.12-3.67,10.34-2.89,18.35,1.74,6.73,3.89,11.18,9.25,11.18,13a3.9,3.9,0,0,1-.5,2c-2.12,3.67-10.34,2.89-18.35-1.74-6.73-3.89-11.18-9.25-11.18-13Z"/><path class="cls-2" d="M30.46,481.39c0,3.48-4.49,8.61-10.68,12.18-8.17,4.71-15.38,4.89-17,2.1a2.92,2.92,0,0,1-.37-1.48c0-3.48,4.49-8.61,10.68-12.18,8.17-4.72,15.38-4.89,17-2.1A2.92,2.92,0,0,1,30.46,481.39Z"/><path class="cls-3" d="M3.42,494.2a1.91,1.91,0,0,0,.23,1c.59,1,2.48,1.5,5,1.25a27.27,27.27,0,0,0,10.58-3.72c6.61-3.82,10.18-8.68,10.18-11.32a1.91,1.91,0,0,0-.23-1c-.59-1-2.48-1.5-5-1.25a27.27,27.27,0,0,0-10.58,3.72C7,486.7,3.42,491.56,3.42,494.2h0m-2,0c0-3.79,4.45-9.16,11.18-13,8-4.63,16.24-5.41,18.35-1.74a3.9,3.9,0,0,1,.5,2c0,3.79-4.45,9.16-11.18,13-8,4.63-16.24,5.41-18.35,1.74a3.9,3.9,0,0,1-.5-2Z"/><rect class="cls-1" x="5.15" y="498.12" width="30.04" height="42.39" transform="translate(-102.37 14.26) rotate(-11.41)"/><path class="cls-2" d="M33.1,512.53A2.92,2.92,0,0,1,33,514c-1,3.05-8.13,4.31-17.07,1.3-6.78-2.28-12.19-6.41-12.88-9.83A2.92,2.92,0,0,1,3.15,504c1-3.05,8.13-4.31,17.07-1.3C27,505,32.41,509.11,33.1,512.53Z"/><path class="cls-3" d="M4.06,505.33c.52,2.58,5,6.64,12.22,9.08A27.27,27.27,0,0,0,27.39,516c2.56-.27,4.32-1.1,4.7-2.23a1.91,1.91,0,0,0,0-1c-.52-2.58-5-6.64-12.22-9.08A27.27,27.27,0,0,0,8.8,502.09c-2.56.27-4.32,1.1-4.7,2.23a1.91,1.91,0,0,0,0,1h0m-2,.4a3.9,3.9,0,0,1,.1-2c1.35-4,9.56-4.88,18.34-1.93,7.37,2.48,12.79,6.86,13.54,10.58a3.9,3.9,0,0,1-.1,2c-1.35,4-9.56,4.88-18.34,1.93-7.37-2.48-12.79-6.86-13.54-10.58Z"/><path class="cls-2" d="M34.72,520.56c.69,3.41-2.7,9.33-8.06,14.05-7.07,6.24-14.11,7.84-16.24,5.42a2.92,2.92,0,0,1-.65-1.38c-.69-3.42,2.7-9.33,8.06-14.05,7.07-6.24,14.1-7.84,16.24-5.42A2.92,2.92,0,0,1,34.72,520.56Z"/><path class="cls-3" d="M10.75,538.46a1.91,1.91,0,0,0,.42.92c.78.89,2.73,1,5.19.23A27.27,27.27,0,0,0,26,533.86c5.73-5.05,8.26-10.52,7.74-13.11a1.91,1.91,0,0,0-.42-.91c-.78-.89-2.73-1-5.19-.23a27.27,27.27,0,0,0-9.63,5.74c-5.73,5.05-8.26,10.52-7.74,13.11h0m-2,.4c-.75-3.72,2.55-9.86,8.38-15,6.94-6.12,14.84-8.51,17.65-5.34a3.9,3.9,0,0,1,.88,1.84c.75,3.72-2.55,9.86-8.38,15-6.94,6.12-14.84,8.51-17.65,5.34a3.9,3.9,0,0,1-.88-1.84Z"/><rect class="cls-1" x="35.73" y="525.3" width="30.04" height="42.39" transform="translate(-494.98 488.09) rotate(-78.59)"/><path class="cls-2" d="M49.51,531.94a2.92,2.92,0,0,1,1.38.65c2.42,2.13.81,9.16-5.42,16.24-4.73,5.36-10.64,8.75-14.05,8.06a2.92,2.92,0,0,1-1.38-.65c-2.42-2.13-.81-9.16,5.42-16.24C40.18,534.64,46.09,531.25,49.51,531.94Z"/><path class="cls-3" d="M31.61,555.91c2.58.52,8.05-2,13.11-7.74a27.27,27.27,0,0,0,5.74-9.63c.75-2.47.66-4.41-.23-5.19a1.91,1.91,0,0,0-.91-.42c-2.58-.52-8.05,2-13.11,7.74a27.27,27.27,0,0,0-5.74,9.63c-.75,2.47-.66,4.41.23,5.19a1.91,1.91,0,0,0,.91.42h0m-.4,2a3.9,3.9,0,0,1-1.84-.88c-3.18-2.8-.79-10.7,5.34-17.65,5.14-5.83,11.28-9.13,15-8.38a3.9,3.9,0,0,1,1.84.88c3.18,2.8.79,10.7-5.34,17.65-5.14,5.83-11.28,9.13-15,8.38Z"/><path class="cls-2" d="M57.54,533.56c3.41.69,7.55,6.11,9.83,12.88,3,8.94,1.75,16-1.3,17.07a2.92,2.92,0,0,1-1.52.07c-3.42-.69-7.55-6.11-9.83-12.88-3-8.94-1.75-16,1.3-17.07A2.92,2.92,0,0,1,57.54,533.56Z"/><path class="cls-3" d="M64.74,562.6a1.91,1.91,0,0,0,1,0c1.12-.38,2-2.13,2.23-4.7a27.27,27.27,0,0,0-1.55-11.11c-2.43-7.24-6.49-11.7-9.08-12.22a1.91,1.91,0,0,0-1,0c-1.12.38-2,2.13-2.23,4.7a27.27,27.27,0,0,0,1.55,11.11c2.43,7.24,6.49,11.7,9.08,12.22h0m-.39,2c-3.72-.75-8.1-6.18-10.58-13.54-3-8.78-2.09-17,1.93-18.34a3.9,3.9,0,0,1,2-.1c3.72.75,8.1,6.18,10.58,13.54,3,8.78,2.09,17-1.93,18.34a3.9,3.9,0,0,1-2,.1Z"/><rect class="cls-1" x="71.66" y="534.34" width="42.39" height="30.04"/><path class="cls-2" d="M88.76,535.34a2.92,2.92,0,0,1,1.48.37c2.79,1.61,2.61,8.82-2.1,17-3.57,6.19-8.7,10.68-12.18,10.68a2.92,2.92,0,0,1-1.48-.37c-2.79-1.61-2.61-8.82,2.1-17C80.15,539.83,85.28,535.34,88.76,535.34Z"/><path class="cls-3" d="M76,562.38c2.63,0,7.5-3.57,11.32-10.18A27.27,27.27,0,0,0,91,541.62c.24-2.57-.23-4.45-1.25-5a1.91,1.91,0,0,0-1-.23c-2.63,0-7.5,3.57-11.32,10.18a27.27,27.27,0,0,0-3.72,10.58c-.24,2.57.23,4.45,1.25,5a1.91,1.91,0,0,0,1,.23h0m0,2a3.9,3.9,0,0,1-2-.5c-3.67-2.12-2.89-10.34,1.74-18.35,3.89-6.73,9.25-11.18,13-11.18a3.9,3.9,0,0,1,2,.5c3.67,2.12,2.89,10.34-1.74,18.35-3.89,6.73-9.25,11.18-13,11.18Z"/><path class="cls-2" d="M97,535.34c3.48,0,8.61,4.49,12.18,10.68,4.71,8.17,4.89,15.38,2.1,17a2.92,2.92,0,0,1-1.48.37c-3.48,0-8.61-4.49-12.18-10.68-4.72-8.17-4.89-15.38-2.1-17A2.92,2.92,0,0,1,97,535.34Z"/><path class="cls-3" d="M109.76,562.38a1.91,1.91,0,0,0,1-.23c1-.59,1.5-2.48,1.25-5a27.27,27.27,0,0,0-3.72-10.58c-3.82-6.61-8.68-10.18-11.32-10.18a1.91,1.91,0,0,0-1,.23c-1,.59-1.5,2.48-1.25,5a27.27,27.27,0,0,0,3.72,10.58c3.82,6.61,8.68,10.18,11.31,10.18h0m0,2c-3.79,0-9.16-4.45-13-11.18-4.63-8-5.41-16.24-1.74-18.35a3.9,3.9,0,0,1,2-.5c3.79,0,9.16,4.45,13,11.18,4.63,8,5.41,16.24,1.74,18.35a3.9,3.9,0,0,1-2,.5Z"/><rect class="cls-1" x="114.05" y="534.34" width="42.39" height="30.04"/><path class="cls-2" d="M131.15,535.34a2.92,2.92,0,0,1,1.48.37c2.79,1.61,2.61,8.82-2.1,17-3.57,6.19-8.7,10.68-12.18,10.68a2.92,2.92,0,0,1-1.48-.37c-2.79-1.61-2.61-8.82,2.1-17C122.55,539.83,127.67,535.34,131.15,535.34Z"/><path class="cls-3" d="M118.35,562.38c2.63,0,7.5-3.57,11.32-10.18a27.27,27.27,0,0,0,3.72-10.58c.24-2.57-.23-4.45-1.25-5a1.91,1.91,0,0,0-1-.23c-2.63,0-7.5,3.57-11.32,10.18a27.27,27.27,0,0,0-3.72,10.58c-.24,2.57.23,4.45,1.25,5a1.91,1.91,0,0,0,1,.23h0m0,2a3.9,3.9,0,0,1-2-.5c-3.67-2.12-2.89-10.34,1.74-18.35,3.89-6.73,9.25-11.18,13-11.18a3.9,3.9,0,0,1,2,.5c3.67,2.12,2.89,10.34-1.74,18.35-3.89,6.73-9.25,11.18-13,11.18Z"/><path class="cls-2" d="M139.35,535.34c3.48,0,8.61,4.49,12.18,10.68,4.71,8.17,4.89,15.38,2.1,17a2.92,2.92,0,0,1-1.48.37c-3.48,0-8.61-4.49-12.18-10.68-4.72-8.17-4.89-15.38-2.1-17A2.92,2.92,0,0,1,139.35,535.34Z"/><path class="cls-3" d="M152.15,562.38a1.91,1.91,0,0,0,1-.23c1-.59,1.5-2.48,1.25-5a27.27,27.27,0,0,0-3.72-10.58c-3.82-6.61-8.68-10.18-11.32-10.18a1.91,1.91,0,0,0-1,.23c-1,.59-1.5,2.48-1.25,5a27.27,27.27,0,0,0,3.72,10.58c3.82,6.61,8.68,10.18,11.31,10.18h0m0,2c-3.79,0-9.16-4.45-13-11.18-4.63-8-5.41-16.24-1.74-18.35a3.9,3.9,0,0,1,2-.5c3.79,0,9.16,4.45,13,11.18,4.63,8,5.41,16.24,1.74,18.35a3.9,3.9,0,0,1-2,.5Z"/><rect class="cls-1" x="156.45" y="534.34" width="42.39" height="30.04"/><path class="cls-2" d="M173.55,535.34a2.92,2.92,0,0,1,1.48.37c2.79,1.61,2.61,8.82-2.1,17-3.57,6.19-8.7,10.68-12.18,10.68a2.92,2.92,0,0,1-1.48-.37c-2.79-1.61-2.61-8.82,2.1-17C164.94,539.83,170.06,535.34,173.55,535.34Z"/><path class="cls-3" d="M160.74,562.38c2.63,0,7.5-3.57,11.32-10.18a27.27,27.27,0,0,0,3.72-10.58c.24-2.57-.23-4.45-1.25-5a1.91,1.91,0,0,0-1-.23c-2.63,0-7.5,3.57-11.32,10.18a27.27,27.27,0,0,0-3.72,10.58c-.24,2.57.23,4.45,1.25,5a1.91,1.91,0,0,0,1,.23h0m0,2a3.9,3.9,0,0,1-2-.5c-3.67-2.12-2.89-10.34,1.74-18.35,3.89-6.73,9.25-11.18,13-11.18a3.9,3.9,0,0,1,2,.5c3.67,2.12,2.89,10.34-1.74,18.35-3.89,6.73-9.25,11.18-13,11.18Z"/><path class="cls-2" d="M181.74,535.34c3.48,0,8.61,4.49,12.18,10.68,4.71,8.17,4.89,15.38,2.1,17a2.92,2.92,0,0,1-1.48.37c-3.48,0-8.61-4.49-12.18-10.68-4.72-8.17-4.89-15.38-2.1-17A2.92,2.92,0,0,1,181.74,535.34Z"/><path class="cls-3" d="M194.55,562.38a1.91,1.91,0,0,0,1-.23c1-.59,1.5-2.48,1.25-5a27.27,27.27,0,0,0-3.72-10.58c-3.82-6.61-8.68-10.18-11.32-10.18a1.91,1.91,0,0,0-1,.23c-1,.59-1.5,2.48-1.25,5a27.27,27.27,0,0,0,3.72,10.58c3.82,6.61,8.68,10.18,11.31,10.18h0m0,2c-3.79,0-9.16-4.45-13-11.18-4.63-8-5.41-16.24-1.74-18.35a3.9,3.9,0,0,1,2-.5c3.79,0,9.16,4.45,13,11.18,4.63,8,5.41,16.24,1.74,18.35a3.9,3.9,0,0,1-2,.5Z"/><rect class="cls-1" x="198.84" y="534.34" width="42.39" height="30.04"/><path class="cls-2" d="M215.94,535.34a2.92,2.92,0,0,1,1.48.37c2.79,1.61,2.61,8.82-2.1,17-3.57,6.19-8.7,10.68-12.18,10.68a2.92,2.92,0,0,1-1.48-.37c-2.79-1.61-2.61-8.82,2.1-17C207.33,539.83,212.46,535.34,215.94,535.34Z"/><path class="cls-3" d="M203.14,562.38c2.63,0,7.5-3.57,11.32-10.18a27.27,27.27,0,0,0,3.72-10.58c.24-2.57-.23-4.45-1.25-5a1.91,1.91,0,0,0-1-.23c-2.63,0-7.5,3.57-11.32,10.18a27.27,27.27,0,0,0-3.72,10.58c-.24,2.57.23,4.45,1.25,5a1.91,1.91,0,0,0,1,.23h0m0,2a3.9,3.9,0,0,1-2-.5c-3.67-2.12-2.89-10.34,1.74-18.35,3.89-6.73,9.25-11.18,13-11.18a3.9,3.9,0,0,1,2,.5c3.67,2.12,2.89,10.34-1.74,18.35-3.89,6.73-9.25,11.18-13,11.18Z"/><path class="cls-2" d="M224.14,535.34c3.48,0,8.61,4.49,12.18,10.68,4.71,8.17,4.89,15.38,2.1,17a2.92,2.92,0,0,1-1.48.37c-3.48,0-8.61-4.49-12.18-10.68-4.72-8.17-4.89-15.38-2.1-17A2.92,2.92,0,0,1,224.14,535.34Z"/><path class="cls-3" d="M236.94,562.38a1.91,1.91,0,0,0,1-.23c1-.59,1.5-2.48,1.25-5a27.27,27.27,0,0,0-3.72-10.58c-3.82-6.61-8.68-10.18-11.32-10.18a1.91,1.91,0,0,0-1,.23c-1,.59-1.5,2.48-1.25,5a27.27,27.27,0,0,0,3.72,10.58c3.82,6.61,8.68,10.18,11.31,10.18h0m0,2c-3.79,0-9.16-4.45-13-11.18-4.63-8-5.41-16.24-1.74-18.35a3.9,3.9,0,0,1,2-.5c3.79,0,9.16,4.45,13,11.18,4.63,8,5.41,16.24,1.74,18.35a3.9,3.9,0,0,1-2,.5Z"/><rect class="cls-1" x="241.24" y="534.34" width="42.39" height="30.04"/><path class="cls-2" d="M258.33,535.34a2.92,2.92,0,0,1,1.48.37c2.79,1.61,2.61,8.82-2.1,17-3.57,6.19-8.7,10.68-12.18,10.68a2.92,2.92,0,0,1-1.48-.37c-2.79-1.61-2.61-8.82,2.1-17C249.73,539.83,254.85,535.34,258.33,535.34Z"/><path class="cls-3" d="M245.53,562.38c2.63,0,7.5-3.57,11.32-10.18a27.27,27.27,0,0,0,3.72-10.58c.24-2.57-.23-4.45-1.25-5a1.91,1.91,0,0,0-1-.23c-2.63,0-7.5,3.57-11.32,10.18a27.27,27.27,0,0,0-3.72,10.58c-.24,2.57.23,4.45,1.25,5a1.91,1.91,0,0,0,1,.23h0m0,2a3.9,3.9,0,0,1-2-.5c-3.67-2.12-2.89-10.34,1.74-18.35,3.89-6.73,9.25-11.18,13-11.18a3.9,3.9,0,0,1,2,.5c3.67,2.12,2.89,10.34-1.74,18.35-3.89,6.73-9.25,11.18-13,11.18Z"/><path class="cls-2" d="M266.53,535.34c3.48,0,8.61,4.49,12.18,10.68,4.71,8.17,4.89,15.38,2.1,17a2.92,2.92,0,0,1-1.48.37c-3.48,0-8.61-4.49-12.18-10.68-4.72-8.17-4.89-15.38-2.1-17A2.92,2.92,0,0,1,266.53,535.34Z"/><path class="cls-3" d="M279.33,562.38a1.91,1.91,0,0,0,1-.23c1-.59,1.5-2.48,1.25-5a27.27,27.27,0,0,0-3.72-10.58c-3.82-6.61-8.68-10.18-11.32-10.18a1.91,1.91,0,0,0-1,.23c-1,.59-1.5,2.48-1.25,5A27.27,27.27,0,0,0,268,552.19c3.82,6.61,8.68,10.18,11.31,10.18h0m0,2c-3.79,0-9.16-4.45-13-11.18-4.63-8-5.41-16.24-1.74-18.35a3.9,3.9,0,0,1,2-.5c3.79,0,9.16,4.45,13,11.18,4.63,8,5.41,16.24,1.74,18.35a3.9,3.9,0,0,1-2,.5Z"/><rect class="cls-1" x="283.63" y="534.34" width="42.39" height="30.04"/><path class="cls-2" d="M300.73,535.34a2.92,2.92,0,0,1,1.48.37c2.79,1.61,2.61,8.82-2.1,17-3.57,6.19-8.7,10.68-12.18,10.68a2.92,2.92,0,0,1-1.48-.37c-2.79-1.61-2.61-8.82,2.1-17C292.12,539.83,297.24,535.34,300.73,535.34Z"/><path class="cls-3" d="M287.92,562.38c2.63,0,7.5-3.57,11.32-10.18A27.27,27.27,0,0,0,303,541.62c.24-2.57-.23-4.45-1.25-5a1.91,1.91,0,0,0-1-.23c-2.63,0-7.5,3.57-11.32,10.18a27.27,27.27,0,0,0-3.72,10.58c-.24,2.57.23,4.45,1.25,5a1.91,1.91,0,0,0,1,.23h0m0,2a3.9,3.9,0,0,1-2-.5c-3.67-2.12-2.89-10.34,1.74-18.35,3.89-6.73,9.25-11.18,13-11.18a3.9,3.9,0,0,1,2,.5c3.67,2.12,2.89,10.34-1.74,18.35-3.89,6.73-9.25,11.18-13,11.18Z"/><path class="cls-2" d="M308.92,535.34c3.48,0,8.61,4.49,12.18,10.68,4.71,8.17,4.89,15.38,2.1,17a2.92,2.92,0,0,1-1.48.37c-3.48,0-8.61-4.49-12.18-10.68-4.72-8.17-4.89-15.38-2.1-17A2.92,2.92,0,0,1,308.92,535.34Z"/><path class="cls-3" d="M321.73,562.38a1.91,1.91,0,0,0,1-.23c1-.59,1.5-2.48,1.25-5a27.27,27.27,0,0,0-3.72-10.58c-3.82-6.61-8.68-10.18-11.32-10.18a1.91,1.91,0,0,0-1,.23c-1,.59-1.5,2.48-1.25,5a27.27,27.27,0,0,0,3.72,10.58c3.82,6.61,8.68,10.18,11.31,10.18h0m0,2c-3.79,0-9.16-4.45-13-11.18-4.63-8-5.41-16.24-1.74-18.35a3.9,3.9,0,0,1,2-.5c3.79,0,9.16,4.45,13,11.18,4.63,8,5.41,16.24,1.74,18.35a3.9,3.9,0,0,1-2,.5Z"/><rect class="cls-1" x="326.02" y="534.34" width="42.39" height="30.04"/><path class="cls-2" d="M343.12,535.34a2.92,2.92,0,0,1,1.48.37c2.79,1.61,2.61,8.82-2.1,17-3.57,6.19-8.7,10.68-12.18,10.68a2.92,2.92,0,0,1-1.48-.37c-2.79-1.61-2.61-8.82,2.1-17C334.51,539.83,339.64,535.34,343.12,535.34Z"/><path class="cls-3" d="M330.32,562.38c2.63,0,7.5-3.57,11.32-10.18a27.27,27.27,0,0,0,3.72-10.58c.24-2.57-.23-4.45-1.25-5a1.91,1.91,0,0,0-1-.23c-2.63,0-7.5,3.57-11.32,10.18a27.27,27.27,0,0,0-3.72,10.58c-.24,2.57.23,4.45,1.25,5a1.91,1.91,0,0,0,1,.23h0m0,2a3.9,3.9,0,0,1-2-.5c-3.67-2.12-2.89-10.34,1.74-18.35,3.89-6.73,9.25-11.18,13-11.18a3.9,3.9,0,0,1,2,.5c3.67,2.12,2.89,10.34-1.74,18.35-3.89,6.73-9.25,11.18-13,11.18Z"/><path class="cls-2" d="M351.32,535.34c3.48,0,8.61,4.49,12.18,10.68,4.71,8.17,4.89,15.38,2.1,17a2.92,2.92,0,0,1-1.48.37c-3.48,0-8.61-4.49-12.18-10.68-4.72-8.17-4.89-15.38-2.1-17A2.92,2.92,0,0,1,351.32,535.34Z"/><path class="cls-3" d="M364.12,562.38a1.91,1.91,0,0,0,1-.23c1-.59,1.5-2.48,1.25-5a27.27,27.27,0,0,0-3.72-10.58c-3.82-6.61-8.68-10.18-11.32-10.18a1.91,1.91,0,0,0-1,.23c-1,.59-1.5,2.48-1.25,5a27.27,27.27,0,0,0,3.72,10.58c3.82,6.61,8.68,10.18,11.31,10.18h0m0,2c-3.79,0-9.16-4.45-13-11.18-4.63-8-5.41-16.24-1.74-18.35a3.9,3.9,0,0,1,2-.5c3.79,0,9.16,4.45,13,11.18,4.63,8,5.41,16.24,1.74,18.35a3.9,3.9,0,0,1-2,.5Z"/><rect class="cls-1" x="368.42" y="534.34" width="42.39" height="30.04"/><path class="cls-2" d="M385.52,535.34a2.92,2.92,0,0,1,1.48.37c2.79,1.61,2.61,8.82-2.1,17-3.57,6.19-8.7,10.68-12.18,10.68a2.92,2.92,0,0,1-1.48-.37c-2.79-1.61-2.61-8.82,2.1-17C376.91,539.83,382,535.34,385.52,535.34Z"/><path class="cls-3" d="M372.71,562.38c2.63,0,7.5-3.57,11.32-10.18a27.27,27.27,0,0,0,3.72-10.58c.24-2.57-.23-4.45-1.25-5a1.91,1.91,0,0,0-1-.23c-2.63,0-7.5,3.57-11.32,10.18a27.27,27.27,0,0,0-3.72,10.58c-.24,2.57.23,4.45,1.25,5a1.91,1.91,0,0,0,1,.23h0m0,2a3.9,3.9,0,0,1-2-.5c-3.67-2.12-2.89-10.34,1.74-18.35,3.89-6.73,9.25-11.18,13-11.18a3.9,3.9,0,0,1,2,.5c3.67,2.12,2.89,10.34-1.74,18.35-3.89,6.73-9.25,11.18-13,11.18Z"/><path class="cls-2" d="M393.71,535.34c3.48,0,8.61,4.49,12.18,10.68,4.71,8.17,4.89,15.38,2.1,17a2.92,2.92,0,0,1-1.48.37c-3.48,0-8.61-4.49-12.18-10.68-4.72-8.17-4.89-15.38-2.1-17A2.92,2.92,0,0,1,393.71,535.34Z"/><path class="cls-3" d="M406.51,562.38a1.91,1.91,0,0,0,1-.23c1-.59,1.5-2.48,1.25-5A27.27,27.27,0,0,0,405,546.52c-3.82-6.61-8.68-10.18-11.32-10.18a1.91,1.91,0,0,0-1,.23c-1,.59-1.5,2.48-1.25,5a27.27,27.27,0,0,0,3.72,10.58c3.82,6.61,8.68,10.18,11.31,10.18h0m0,2c-3.79,0-9.16-4.45-13-11.18-4.63-8-5.41-16.24-1.74-18.35a3.9,3.9,0,0,1,2-.5c3.79,0,9.16,4.45,13,11.18,4.63,8,5.41,16.24,1.74,18.35a3.9,3.9,0,0,1-2,.5Z"/><rect class="cls-1" x="410.81" y="534.34" width="42.39" height="30.04"/><path class="cls-2" d="M427.91,535.34a2.92,2.92,0,0,1,1.48.37c2.79,1.61,2.61,8.82-2.1,17-3.57,6.19-8.7,10.68-12.18,10.68a2.92,2.92,0,0,1-1.48-.37c-2.79-1.61-2.61-8.82,2.1-17C419.3,539.83,424.43,535.34,427.91,535.34Z"/><path class="cls-3" d="M415.1,562.38c2.63,0,7.5-3.57,11.32-10.18a27.27,27.27,0,0,0,3.72-10.58c.24-2.57-.23-4.45-1.25-5a1.91,1.91,0,0,0-1-.23c-2.63,0-7.5,3.57-11.32,10.18a27.27,27.27,0,0,0-3.72,10.58c-.24,2.57.23,4.45,1.25,5a1.91,1.91,0,0,0,1,.23h0m0,2a3.9,3.9,0,0,1-2-.5c-3.67-2.12-2.89-10.34,1.74-18.35,3.89-6.73,9.25-11.18,13-11.18a3.9,3.9,0,0,1,2,.5c3.67,2.12,2.89,10.34-1.74,18.35-3.89,6.73-9.25,11.18-13,11.18Z"/><path class="cls-2" d="M436.1,535.34c3.48,0,8.61,4.49,12.18,10.68,4.71,8.17,4.89,15.38,2.1,17a2.92,2.92,0,0,1-1.48.37c-3.48,0-8.61-4.49-12.18-10.68-4.72-8.17-4.89-15.38-2.1-17A2.92,2.92,0,0,1,436.1,535.34Z"/><path class="cls-3" d="M448.91,562.38a1.91,1.91,0,0,0,1-.23c1-.59,1.5-2.48,1.25-5a27.27,27.27,0,0,0-3.72-10.58c-3.82-6.61-8.68-10.18-11.32-10.18a1.91,1.91,0,0,0-1,.23c-1,.59-1.5,2.48-1.25,5a27.27,27.27,0,0,0,3.72,10.58c3.82,6.61,8.68,10.18,11.31,10.18h0m0,2c-3.79,0-9.16-4.45-13-11.18-4.63-8-5.41-16.24-1.74-18.35a3.9,3.9,0,0,1,2-.5c3.79,0,9.16,4.45,13,11.18,4.63,8,5.41,16.24,1.74,18.35a3.9,3.9,0,0,1-2,.5Z"/><rect class="cls-1" x="453.2" y="534.34" width="42.39" height="30.04"/><path class="cls-2" d="M470.3,535.34a2.92,2.92,0,0,1,1.48.37c2.79,1.61,2.61,8.82-2.1,17-3.57,6.19-8.7,10.68-12.18,10.68A2.92,2.92,0,0,1,456,563c-2.79-1.61-2.61-8.82,2.1-17C461.7,539.83,466.82,535.34,470.3,535.34Z"/><path class="cls-3" d="M457.5,562.38c2.63,0,7.5-3.57,11.32-10.18a27.27,27.27,0,0,0,3.72-10.58c.24-2.57-.23-4.45-1.25-5a1.91,1.91,0,0,0-1-.23c-2.63,0-7.5,3.57-11.32,10.18a27.27,27.27,0,0,0-3.72,10.58c-.24,2.57.23,4.45,1.25,5a1.91,1.91,0,0,0,1,.23h0m0,2a3.9,3.9,0,0,1-2-.5c-3.67-2.12-2.89-10.34,1.74-18.35,3.89-6.73,9.25-11.18,13-11.18a3.9,3.9,0,0,1,2,.5c3.67,2.12,2.89,10.34-1.74,18.35-3.89,6.73-9.25,11.18-13,11.18Z"/><path class="cls-2" d="M478.5,535.34c3.48,0,8.61,4.49,12.18,10.68,4.71,8.17,4.89,15.38,2.1,17a2.92,2.92,0,0,1-1.48.37c-3.48,0-8.61-4.49-12.18-10.68-4.72-8.17-4.89-15.38-2.1-17A2.92,2.92,0,0,1,478.5,535.34Z"/><path class="cls-3" d="M491.3,562.38a1.91,1.91,0,0,0,1-.23c1-.59,1.5-2.48,1.25-5a27.27,27.27,0,0,0-3.72-10.58c-3.82-6.61-8.68-10.18-11.32-10.18a1.91,1.91,0,0,0-1,.23c-1,.59-1.5,2.48-1.25,5A27.27,27.27,0,0,0,480,552.19c3.82,6.61,8.68,10.18,11.31,10.18h0m0,2c-3.79,0-9.16-4.45-13-11.18-4.63-8-5.41-16.24-1.74-18.35a3.9,3.9,0,0,1,2-.5c3.79,0,9.16,4.45,13,11.18,4.63,8,5.41,16.24,1.74,18.35a3.9,3.9,0,0,1-2,.5Z"/><rect class="cls-1" x="495.6" y="534.34" width="42.39" height="30.04"/><path class="cls-2" d="M512.7,535.34a2.92,2.92,0,0,1,1.48.37c2.79,1.61,2.61,8.82-2.1,17-3.57,6.19-8.7,10.68-12.18,10.68a2.92,2.92,0,0,1-1.48-.37c-2.79-1.61-2.61-8.82,2.1-17C504.09,539.83,509.21,535.34,512.7,535.34Z"/><path class="cls-3" d="M499.89,562.38c2.63,0,7.5-3.57,11.32-10.18a27.27,27.27,0,0,0,3.72-10.58c.24-2.57-.23-4.45-1.25-5a1.91,1.91,0,0,0-1-.23c-2.63,0-7.5,3.57-11.32,10.18a27.27,27.27,0,0,0-3.72,10.58c-.24,2.57.23,4.45,1.25,5a1.91,1.91,0,0,0,1,.23h0m0,2a3.9,3.9,0,0,1-2-.5c-3.67-2.12-2.89-10.34,1.74-18.35,3.89-6.73,9.25-11.18,13-11.18a3.9,3.9,0,0,1,2,.5c3.67,2.12,2.89,10.34-1.74,18.35-3.89,6.73-9.25,11.18-13,11.18Z"/><path class="cls-2" d="M520.89,535.34c3.48,0,8.61,4.49,12.18,10.68,4.71,8.17,4.89,15.38,2.1,17a2.92,2.92,0,0,1-1.48.37c-3.48,0-8.61-4.49-12.18-10.68-4.72-8.17-4.89-15.38-2.1-17A2.92,2.92,0,0,1,520.89,535.34Z"/><path class="cls-3" d="M533.7,562.38a1.91,1.91,0,0,0,1-.23c1-.59,1.5-2.48,1.25-5a27.27,27.27,0,0,0-3.72-10.58c-3.82-6.61-8.68-10.18-11.32-10.18a1.91,1.91,0,0,0-1,.23c-1,.59-1.5,2.48-1.25,5a27.27,27.27,0,0,0,3.72,10.58c3.82,6.61,8.68,10.18,11.31,10.18h0m0,2c-3.79,0-9.16-4.45-13-11.18-4.63-8-5.41-16.24-1.74-18.35a3.9,3.9,0,0,1,2-.5c3.79,0,9.16,4.45,13,11.18,4.63,8,5.41,16.24,1.74,18.35a3.9,3.9,0,0,1-2,.5Z"/><rect class="cls-1" x="537.99" y="534.34" width="42.39" height="30.04"/><path class="cls-2" d="M555.09,535.34a2.92,2.92,0,0,1,1.48.37c2.79,1.61,2.61,8.82-2.1,17-3.57,6.19-8.7,10.68-12.18,10.68a2.92,2.92,0,0,1-1.48-.37c-2.79-1.61-2.61-8.82,2.1-17C546.48,539.83,551.61,535.34,555.09,535.34Z"/><path class="cls-3" d="M542.29,562.38c2.63,0,7.5-3.57,11.32-10.18a27.27,27.27,0,0,0,3.72-10.58c.24-2.57-.23-4.45-1.25-5a1.91,1.91,0,0,0-1-.23c-2.63,0-7.5,3.57-11.32,10.18a27.27,27.27,0,0,0-3.72,10.58c-.24,2.57.23,4.45,1.25,5a1.91,1.91,0,0,0,1,.23h0m0,2a3.9,3.9,0,0,1-2-.5c-3.67-2.12-2.89-10.34,1.74-18.35,3.89-6.73,9.25-11.18,13-11.18a3.9,3.9,0,0,1,2,.5c3.67,2.12,2.89,10.34-1.74,18.35-3.89,6.73-9.25,11.18-13,11.18Z"/><path class="cls-2" d="M563.29,535.34c3.48,0,8.61,4.49,12.18,10.68,4.71,8.17,4.89,15.38,2.1,17a2.92,2.92,0,0,1-1.48.37c-3.48,0-8.61-4.49-12.18-10.68-4.72-8.17-4.89-15.38-2.1-17A2.92,2.92,0,0,1,563.29,535.34Z"/><path class="cls-3" d="M576.09,562.38a1.91,1.91,0,0,0,1-.23c1-.59,1.5-2.48,1.25-5a27.27,27.27,0,0,0-3.72-10.58c-3.82-6.61-8.68-10.18-11.32-10.18a1.91,1.91,0,0,0-1,.23c-1,.59-1.5,2.48-1.25,5a27.27,27.27,0,0,0,3.72,10.58c3.82,6.61,8.68,10.18,11.31,10.18h0m0,2c-3.79,0-9.16-4.45-13-11.18-4.63-8-5.41-16.24-1.74-18.35a3.9,3.9,0,0,1,2-.5c3.79,0,9.16,4.45,13,11.18,4.63,8,5.41,16.24,1.74,18.35a3.9,3.9,0,0,1-2,.5Z"/><rect class="cls-1" x="580.38" y="534.34" width="42.39" height="30.04"/><path class="cls-2" d="M597.48,535.34a2.92,2.92,0,0,1,1.48.37c2.79,1.61,2.61,8.82-2.1,17-3.57,6.19-8.7,10.68-12.18,10.68a2.92,2.92,0,0,1-1.48-.37c-2.79-1.61-2.61-8.82,2.1-17C588.88,539.83,594,535.34,597.48,535.34Z"/><path class="cls-3" d="M584.68,562.38c2.63,0,7.5-3.57,11.32-10.18a27.27,27.27,0,0,0,3.72-10.58c.24-2.57-.23-4.45-1.25-5a1.91,1.91,0,0,0-1-.23c-2.63,0-7.5,3.57-11.32,10.18a27.27,27.27,0,0,0-3.72,10.58c-.24,2.57.23,4.45,1.25,5a1.91,1.91,0,0,0,1,.23h0m0,2a3.9,3.9,0,0,1-2-.5c-3.67-2.12-2.89-10.34,1.74-18.35,3.89-6.73,9.25-11.18,13-11.18a3.9,3.9,0,0,1,2,.5c3.67,2.12,2.89,10.34-1.74,18.35-3.89,6.73-9.25,11.18-13,11.18Z"/><path class="cls-2" d="M605.68,535.34c3.48,0,8.61,4.49,12.18,10.68,4.71,8.17,4.89,15.38,2.1,17a2.92,2.92,0,0,1-1.48.37c-3.48,0-8.61-4.49-12.18-10.68-4.72-8.17-4.89-15.38-2.1-17A2.92,2.92,0,0,1,605.68,535.34Z"/><path class="cls-3" d="M618.48,562.38a1.91,1.91,0,0,0,1-.23c1-.59,1.5-2.48,1.25-5A27.27,27.27,0,0,0,617,546.52c-3.82-6.61-8.68-10.18-11.32-10.18a1.91,1.91,0,0,0-1,.23c-1,.59-1.5,2.48-1.25,5a27.27,27.27,0,0,0,3.72,10.58c3.82,6.61,8.68,10.18,11.31,10.18h0m0,2c-3.79,0-9.16-4.45-13-11.18-4.63-8-5.41-16.24-1.74-18.35a3.9,3.9,0,0,1,2-.5c3.79,0,9.16,4.45,13,11.18,4.63,8,5.41,16.24,1.74,18.35a3.9,3.9,0,0,1-2,.5Z"/><rect class="cls-1" x="622.78" y="534.34" width="42.39" height="30.04"/><path class="cls-2" d="M639.88,535.34a2.92,2.92,0,0,1,1.48.37c2.79,1.61,2.61,8.82-2.1,17-3.57,6.19-8.7,10.68-12.18,10.68a2.92,2.92,0,0,1-1.48-.37c-2.79-1.61-2.61-8.82,2.1-17C631.27,539.83,636.39,535.34,639.88,535.34Z"/><path class="cls-3" d="M627.07,562.38c2.63,0,7.5-3.57,11.32-10.18a27.27,27.27,0,0,0,3.72-10.58c.24-2.57-.23-4.45-1.25-5a1.91,1.91,0,0,0-1-.23c-2.63,0-7.5,3.57-11.32,10.18a27.27,27.27,0,0,0-3.72,10.58c-.24,2.57.23,4.45,1.25,5a1.91,1.91,0,0,0,1,.23h0m0,2a3.9,3.9,0,0,1-2-.5c-3.67-2.12-2.89-10.34,1.74-18.35,3.89-6.73,9.25-11.18,13-11.18a3.9,3.9,0,0,1,2,.5c3.67,2.12,2.89,10.34-1.74,18.35-3.89,6.73-9.25,11.18-13,11.18Z"/><path class="cls-2" d="M648.07,535.34c3.48,0,8.61,4.49,12.18,10.68,4.71,8.17,4.89,15.38,2.1,17a2.92,2.92,0,0,1-1.48.37c-3.48,0-8.61-4.49-12.18-10.68-4.72-8.17-4.89-15.38-2.1-17A2.92,2.92,0,0,1,648.07,535.34Z"/><path class="cls-3" d="M660.88,562.38a1.91,1.91,0,0,0,1-.23c1-.59,1.5-2.48,1.25-5a27.27,27.27,0,0,0-3.72-10.58c-3.82-6.61-8.68-10.18-11.32-10.18a1.91,1.91,0,0,0-1,.23c-1,.59-1.5,2.48-1.25,5a27.27,27.27,0,0,0,3.72,10.58c3.82,6.61,8.68,10.18,11.31,10.18h0m0,2c-3.79,0-9.16-4.45-13-11.18-4.63-8-5.41-16.24-1.74-18.35a3.9,3.9,0,0,1,2-.5c3.79,0,9.16,4.45,13,11.18,4.63,8,5.41,16.24,1.74,18.35a3.9,3.9,0,0,1-2,.5Z"/><rect class="cls-1" x="665.17" y="534.34" width="42.39" height="30.04"/><path class="cls-2" d="M682.27,535.34a2.92,2.92,0,0,1,1.48.37c2.79,1.61,2.61,8.82-2.1,17-3.57,6.19-8.7,10.68-12.18,10.68A2.92,2.92,0,0,1,668,563c-2.79-1.61-2.61-8.82,2.1-17C673.66,539.83,678.79,535.34,682.27,535.34Z"/><path class="cls-3" d="M669.47,562.38c2.63,0,7.5-3.57,11.32-10.18a27.27,27.27,0,0,0,3.72-10.58c.24-2.57-.23-4.45-1.25-5a1.91,1.91,0,0,0-1-.23c-2.63,0-7.5,3.57-11.32,10.18a27.27,27.27,0,0,0-3.72,10.58c-.24,2.57.23,4.45,1.25,5a1.91,1.91,0,0,0,1,.23h0m0,2a3.9,3.9,0,0,1-2-.5c-3.67-2.12-2.89-10.34,1.74-18.35,3.89-6.73,9.25-11.18,13-11.18a3.9,3.9,0,0,1,2,.5c3.67,2.12,2.89,10.34-1.74,18.35-3.89,6.73-9.25,11.18-13,11.18Z"/><path class="cls-2" d="M690.47,535.34c3.48,0,8.61,4.49,12.18,10.68,4.71,8.17,4.89,15.38,2.1,17a2.92,2.92,0,0,1-1.48.37c-3.48,0-8.61-4.49-12.18-10.68-4.72-8.17-4.89-15.38-2.1-17A2.92,2.92,0,0,1,690.47,535.34Z"/><path class="cls-3" d="M703.27,562.38a1.91,1.91,0,0,0,1-.23c1-.59,1.5-2.48,1.25-5a27.27,27.27,0,0,0-3.72-10.58c-3.82-6.61-8.68-10.18-11.32-10.18a1.91,1.91,0,0,0-1,.23c-1,.59-1.5,2.48-1.25,5A27.27,27.27,0,0,0,692,552.19c3.82,6.61,8.68,10.18,11.31,10.18h0m0,2c-3.79,0-9.16-4.45-13-11.18-4.63-8-5.41-16.24-1.74-18.35a3.9,3.9,0,0,1,2-.5c3.79,0,9.16,4.45,13,11.18,4.63,8,5.41,16.24,1.74,18.35a3.9,3.9,0,0,1-2,.5Z"/><rect class="cls-1" x="707.57" y="534.34" width="42.39" height="30.04"/><path class="cls-2" d="M724.67,535.34a2.92,2.92,0,0,1,1.48.37c2.79,1.61,2.61,8.82-2.1,17-3.57,6.19-8.7,10.68-12.18,10.68a2.92,2.92,0,0,1-1.48-.37c-2.79-1.61-2.61-8.82,2.1-17C716.06,539.83,721.18,535.34,724.67,535.34Z"/><path class="cls-3" d="M711.86,562.38c2.63,0,7.5-3.57,11.32-10.18a27.27,27.27,0,0,0,3.72-10.58c.24-2.57-.23-4.45-1.25-5a1.91,1.91,0,0,0-1-.23c-2.63,0-7.5,3.57-11.32,10.18a27.27,27.27,0,0,0-3.72,10.58c-.24,2.57.23,4.45,1.25,5a1.91,1.91,0,0,0,1,.23h0m0,2a3.9,3.9,0,0,1-2-.5c-3.67-2.12-2.89-10.34,1.74-18.35,3.89-6.73,9.25-11.18,13-11.18a3.9,3.9,0,0,1,2,.5c3.67,2.12,2.89,10.34-1.74,18.35-3.89,6.73-9.25,11.18-13,11.18Z"/><path class="cls-2" d="M732.86,535.34c3.48,0,8.61,4.49,12.18,10.68,4.71,8.17,4.89,15.38,2.1,17a2.92,2.92,0,0,1-1.48.37c-3.48,0-8.61-4.49-12.18-10.68-4.72-8.17-4.89-15.38-2.1-17A2.92,2.92,0,0,1,732.86,535.34Z"/><path class="cls-3" d="M745.66,562.38a1.91,1.91,0,0,0,1-.23c1-.59,1.5-2.48,1.25-5a27.27,27.27,0,0,0-3.72-10.58c-3.82-6.61-8.68-10.18-11.32-10.18a1.91,1.91,0,0,0-1,.23c-1,.59-1.5,2.48-1.25,5a27.27,27.27,0,0,0,3.72,10.58c3.82,6.61,8.68,10.18,11.31,10.18h0m0,2c-3.79,0-9.16-4.45-13-11.18-4.63-8-5.41-16.24-1.74-18.35a3.9,3.9,0,0,1,2-.5c3.79,0,9.16,4.45,13,11.18,4.63,8,5.41,16.24,1.74,18.35a3.9,3.9,0,0,1-2,.5Z"/><rect class="cls-1" x="749.96" y="534.34" width="42.39" height="30.04"/><path class="cls-2" d="M767.06,535.34a2.92,2.92,0,0,1,1.48.37c2.79,1.61,2.61,8.82-2.1,17-3.57,6.19-8.7,10.68-12.18,10.68a2.92,2.92,0,0,1-1.48-.37c-2.79-1.61-2.61-8.82,2.1-17C758.45,539.83,763.57,535.34,767.06,535.34Z"/><path class="cls-3" d="M754.25,562.38c2.63,0,7.5-3.57,11.32-10.18a27.27,27.27,0,0,0,3.72-10.58c.24-2.57-.23-4.45-1.25-5a1.91,1.91,0,0,0-1-.23c-2.63,0-7.5,3.57-11.32,10.18A27.27,27.27,0,0,0,752,557.1c-.24,2.57.23,4.45,1.25,5a1.91,1.91,0,0,0,1,.23h0m0,2a3.9,3.9,0,0,1-2-.5c-3.67-2.12-2.89-10.34,1.74-18.35,3.89-6.73,9.25-11.18,13-11.18a3.9,3.9,0,0,1,2,.5c3.67,2.12,2.89,10.34-1.74,18.35-3.89,6.73-9.25,11.18-13,11.18Z"/><path class="cls-2" d="M775.25,535.34c3.48,0,8.61,4.49,12.18,10.68,4.71,8.17,4.89,15.38,2.1,17a2.92,2.92,0,0,1-1.48.37c-3.48,0-8.61-4.49-12.18-10.68-4.72-8.17-4.89-15.38-2.1-17A2.92,2.92,0,0,1,775.25,535.34Z"/><path class="cls-3" d="M788.06,562.38a1.91,1.91,0,0,0,1-.23c1-.59,1.5-2.48,1.25-5a27.27,27.27,0,0,0-3.72-10.58c-3.82-6.61-8.68-10.18-11.32-10.18a1.91,1.91,0,0,0-1,.23c-1,.59-1.5,2.48-1.25,5a27.27,27.27,0,0,0,3.72,10.58c3.82,6.61,8.68,10.18,11.31,10.18h0m0,2c-3.79,0-9.16-4.45-13-11.18-4.63-8-5.41-16.24-1.74-18.35a3.9,3.9,0,0,1,2-.5c3.79,0,9.16,4.45,13,11.18,4.63,8,5.41,16.24,1.74,18.35a3.9,3.9,0,0,1-2,.5Z"/><rect class="cls-1" x="792.35" y="534.34" width="42.39" height="30.04"/><path class="cls-2" d="M809.45,535.34a2.92,2.92,0,0,1,1.48.37c2.79,1.61,2.61,8.82-2.1,17-3.57,6.19-8.7,10.68-12.18,10.68a2.92,2.92,0,0,1-1.48-.37c-2.79-1.61-2.61-8.82,2.1-17C800.85,539.83,806,535.34,809.45,535.34Z"/><path class="cls-3" d="M796.65,562.38c2.63,0,7.5-3.57,11.32-10.18a27.27,27.27,0,0,0,3.72-10.58c.24-2.57-.23-4.45-1.25-5a1.91,1.91,0,0,0-1-.23c-2.63,0-7.5,3.57-11.32,10.18a27.27,27.27,0,0,0-3.72,10.58c-.24,2.57.23,4.45,1.25,5a1.91,1.91,0,0,0,1,.23h0m0,2a3.9,3.9,0,0,1-2-.5c-3.67-2.12-2.89-10.34,1.74-18.35,3.89-6.73,9.25-11.18,13-11.18a3.9,3.9,0,0,1,2,.5c3.67,2.12,2.89,10.34-1.74,18.35-3.89,6.73-9.25,11.18-13,11.18Z"/><path class="cls-2" d="M817.65,535.34c3.48,0,8.61,4.49,12.18,10.68,4.71,8.17,4.89,15.38,2.1,17a2.92,2.92,0,0,1-1.48.37c-3.48,0-8.61-4.49-12.18-10.68-4.72-8.17-4.89-15.38-2.1-17A2.92,2.92,0,0,1,817.65,535.34Z"/><path class="cls-3" d="M830.45,562.38a1.91,1.91,0,0,0,1-.23c1-.59,1.5-2.48,1.25-5A27.27,27.27,0,0,0,829,546.52c-3.82-6.61-8.68-10.18-11.32-10.18a1.91,1.91,0,0,0-1,.23c-1,.59-1.5,2.48-1.25,5a27.27,27.27,0,0,0,3.72,10.58c3.82,6.61,8.68,10.18,11.31,10.18h0m0,2c-3.79,0-9.16-4.45-13-11.18-4.63-8-5.41-16.24-1.74-18.35a3.9,3.9,0,0,1,2-.5c3.79,0,9.16,4.45,13,11.18,4.63,8,5.41,16.24,1.74,18.35a3.9,3.9,0,0,1-2,.5Z"/><rect class="cls-1" x="834.75" y="534.34" width="42.39" height="30.04"/><path class="cls-2" d="M851.85,535.34a2.92,2.92,0,0,1,1.48.37c2.79,1.61,2.61,8.82-2.1,17-3.57,6.19-8.7,10.68-12.18,10.68a2.92,2.92,0,0,1-1.48-.37c-2.79-1.61-2.61-8.82,2.1-17C843.24,539.83,848.36,535.34,851.85,535.34Z"/><path class="cls-3" d="M839,562.38c2.63,0,7.5-3.57,11.32-10.18a27.27,27.27,0,0,0,3.72-10.58c.24-2.57-.23-4.45-1.25-5a1.91,1.91,0,0,0-1-.23c-2.63,0-7.5,3.57-11.32,10.18a27.27,27.27,0,0,0-3.72,10.58c-.24,2.57.23,4.45,1.25,5a1.91,1.91,0,0,0,1,.23h0m0,2a3.9,3.9,0,0,1-2-.5c-3.67-2.12-2.89-10.34,1.74-18.35,3.89-6.73,9.25-11.18,13-11.18a3.9,3.9,0,0,1,2,.5c3.67,2.12,2.89,10.34-1.74,18.35-3.89,6.73-9.25,11.18-13,11.18Z"/><path class="cls-2" d="M860,535.34c3.48,0,8.61,4.49,12.18,10.68,4.71,8.17,4.89,15.38,2.1,17a2.92,2.92,0,0,1-1.48.37c-3.48,0-8.61-4.49-12.18-10.68-4.72-8.17-4.89-15.38-2.1-17A2.92,2.92,0,0,1,860,535.34Z"/><path class="cls-3" d="M872.85,562.38a1.91,1.91,0,0,0,1-.23c1-.59,1.5-2.48,1.25-5a27.27,27.27,0,0,0-3.72-10.58c-3.82-6.61-8.68-10.18-11.32-10.18a1.91,1.91,0,0,0-1,.23c-1,.59-1.5,2.48-1.25,5a27.27,27.27,0,0,0,3.72,10.58c3.82,6.61,8.68,10.18,11.31,10.18h0m0,2c-3.79,0-9.16-4.45-13-11.18-4.63-8-5.41-16.24-1.74-18.35a3.9,3.9,0,0,1,2-.5c3.79,0,9.16,4.45,13,11.18,4.63,8,5.41,16.24,1.74,18.35a3.9,3.9,0,0,1-2,.5Z"/></g></g></svg>